<svg xmlns="http://www.w3.org/2000/svg" xmlns:xlink="http://www.w3.org/1999/xlink" width="440.501" height="735.498" viewBox="0 0 440.501 735.498">
  <defs>
    <linearGradient id="linear-gradient" x1="0.5" x2="0.5" y2="1" gradientUnits="objectBoundingBox">
      <stop offset="0" stop-color="#ed6b3e"/>
      <stop offset="0.221" stop-color="#e8673d"/>
      <stop offset="0.473" stop-color="#da5b3a"/>
      <stop offset="0.737" stop-color="#c44835"/>
      <stop offset="1" stop-color="#a62f2f"/>
    </linearGradient>
  </defs>
  <g id="Grupo_3481" data-name="Grupo 3481" transform="translate(578.725 -3500.956)">
    <path id="Trazado_5122" data-name="Trazado 5122" d="M12,0H428.5a12,12,0,0,1,12,12V50.609a12,12,0,0,1-12,12H12a12,12,0,0,1-12-12V12A12,12,0,0,1,12,0Z" transform="translate(-578.725 3500.956)" fill="#333821"/>
    <path id="Trazado_5123" data-name="Trazado 5123" d="M63.522,21V6.723H66.55V21Zm9.844.2A3.546,3.546,0,0,1,70.344,19.7a6.869,6.869,0,0,1-1.1-4.141,6.876,6.876,0,0,1,1.118-4.185,3.632,3.632,0,0,1,3.081-1.5,3.562,3.562,0,0,1,3.145,1.6h.1A12.176,12.176,0,0,1,76.462,9.3V5.8H79.45V21H77.165l-.576-1.416h-.127A3.408,3.408,0,0,1,73.366,21.2Zm1.045-2.373a2.018,2.018,0,0,0,1.675-.664,3.863,3.863,0,0,0,.581-2.256V15.58a4.464,4.464,0,0,0-.542-2.52,2.013,2.013,0,0,0-1.763-.762,1.748,1.748,0,0,0-1.548.845,4.507,4.507,0,0,0-.552,2.456,4.271,4.271,0,0,0,.557,2.417A1.819,1.819,0,0,0,74.411,18.822ZM87.087,12a1.889,1.889,0,0,0-1.484.6,2.78,2.78,0,0,0-.615,1.7h4.18a2.483,2.483,0,0,0-.576-1.7A1.951,1.951,0,0,0,87.087,12Zm.42,9.2a5.635,5.635,0,0,1-4.121-1.455A5.509,5.509,0,0,1,81.9,15.619a6.06,6.06,0,0,1,1.372-4.243,4.886,4.886,0,0,1,3.794-1.5,4.809,4.809,0,0,1,3.6,1.318,4.988,4.988,0,0,1,1.289,3.643v1.445H84.919a2.867,2.867,0,0,0,.752,1.982,2.646,2.646,0,0,0,1.973.713,8.189,8.189,0,0,0,1.865-.205,9.333,9.333,0,0,0,1.836-.654v2.3a6.994,6.994,0,0,1-1.67.581A10.529,10.529,0,0,1,87.507,21.2ZM104.46,21h-2.979V14.623a3.063,3.063,0,0,0-.42-1.772,1.528,1.528,0,0,0-1.338-.591,2.011,2.011,0,0,0-1.807.835,5.178,5.178,0,0,0-.557,2.769V21H94.382V10.082h2.275l.4,1.4h.166a3.148,3.148,0,0,1,1.372-1.2,4.672,4.672,0,0,1,1.987-.405,3.818,3.818,0,0,1,2.891,1.03,4.134,4.134,0,0,1,.986,2.974Zm7.666-2.178A6.457,6.457,0,0,0,114,18.48V20.7a6.685,6.685,0,0,1-2.734.5,3.347,3.347,0,0,1-2.6-.9,3.932,3.932,0,0,1-.815-2.71V12.318h-1.426v-1.26l1.641-1,.859-2.3h1.9v2.324h3.057v2.236h-3.057v5.264a1.163,1.163,0,0,0,.356.938A1.406,1.406,0,0,0,112.126,18.822ZM116.081,7.26q0-1.455,1.621-1.455t1.621,1.455a1.419,1.419,0,0,1-.405,1.079,1.7,1.7,0,0,1-1.216.386Q116.081,8.725,116.081,7.26ZM119.186,21h-2.979V10.082h2.979Zm9.16-8.682h-2.578V21H122.79V12.318h-1.641V10.883l1.641-.8v-.8a3.577,3.577,0,0,1,.918-2.725,4.207,4.207,0,0,1,2.939-.859,7.65,7.65,0,0,1,2.744.459l-.762,2.188a5.552,5.552,0,0,0-1.66-.283,1.075,1.075,0,0,0-.918.376,1.555,1.555,0,0,0-.283.962v.684h2.578Zm1.582-5.059q0-1.455,1.621-1.455t1.621,1.455a1.419,1.419,0,0,1-.405,1.079,1.7,1.7,0,0,1-1.216.386Q129.928,8.725,129.928,7.26ZM133.034,21h-2.979V10.082h2.979Zm7.549.2q-5.1,0-5.1-5.6a5.969,5.969,0,0,1,1.387-4.253,5.2,5.2,0,0,1,3.975-1.47,7.577,7.577,0,0,1,3.4.742l-.879,2.3q-.7-.283-1.309-.464a4.216,4.216,0,0,0-1.211-.181q-2.324,0-2.324,3.3,0,3.2,2.324,3.2a5.3,5.3,0,0,0,1.592-.229,5.747,5.747,0,0,0,1.465-.718v2.549a4.8,4.8,0,0,1-1.46.635A8.21,8.21,0,0,1,140.583,21.2Zm12.783-.2-.576-1.484h-.078a4.4,4.4,0,0,1-1.548,1.313,5,5,0,0,1-2.075.366,3.356,3.356,0,0,1-2.476-.9,3.45,3.45,0,0,1-.9-2.559,2.881,2.881,0,0,1,1.216-2.563,7.045,7.045,0,0,1,3.667-.913l1.895-.059v-.479a1.485,1.485,0,0,0-1.7-1.66,7.743,7.743,0,0,0-3.076.791l-.986-2.012a8.876,8.876,0,0,1,4.18-.986,5.206,5.206,0,0,1,3.369.957,3.537,3.537,0,0,1,1.172,2.91V21Zm-.879-5.059-1.152.039a3.69,3.69,0,0,0-1.934.469,1.472,1.472,0,0,0-.635,1.309q0,1.26,1.445,1.26a2.289,2.289,0,0,0,1.655-.6,2.092,2.092,0,0,0,.62-1.582Zm12.119-6.064a4.8,4.8,0,0,1,1.006.088l-.225,2.793a3.412,3.412,0,0,0-.879-.1,3.159,3.159,0,0,0-2.222.732,2.648,2.648,0,0,0-.8,2.051V21h-2.979V10.082h2.256l.439,1.836h.146a4.1,4.1,0,0,1,1.372-1.479A3.383,3.383,0,0,1,164.606,9.877ZM176.247,21.2a3.546,3.546,0,0,1-3.022-1.494,6.869,6.869,0,0,1-1.1-4.141,6.876,6.876,0,0,1,1.118-4.185,3.632,3.632,0,0,1,3.081-1.5,3.562,3.562,0,0,1,3.145,1.6h.1a12.177,12.177,0,0,1-.225-2.178V5.8h2.988V21h-2.285l-.576-1.416h-.127A3.408,3.408,0,0,1,176.247,21.2Zm1.045-2.373a2.018,2.018,0,0,0,1.675-.664,3.863,3.863,0,0,0,.581-2.256V15.58a4.464,4.464,0,0,0-.542-2.52,2.013,2.013,0,0,0-1.763-.762,1.748,1.748,0,0,0-1.548.845,4.507,4.507,0,0,0-.552,2.456,4.271,4.271,0,0,0,.557,2.417A1.819,1.819,0,0,0,177.292,18.822ZM189.968,12a1.889,1.889,0,0,0-1.484.6,2.78,2.78,0,0,0-.615,1.7h4.18a2.483,2.483,0,0,0-.576-1.7A1.951,1.951,0,0,0,189.968,12Zm.42,9.2a5.635,5.635,0,0,1-4.121-1.455,5.509,5.509,0,0,1-1.484-4.121,6.06,6.06,0,0,1,1.372-4.243,4.886,4.886,0,0,1,3.794-1.5,4.809,4.809,0,0,1,3.6,1.318,4.988,4.988,0,0,1,1.289,3.643v1.445H187.8a2.867,2.867,0,0,0,.752,1.982,2.646,2.646,0,0,0,1.973.713,8.189,8.189,0,0,0,1.865-.205,9.333,9.333,0,0,0,1.836-.654v2.3a6.994,6.994,0,0,1-1.67.581A10.529,10.529,0,0,1,190.387,21.2Zm19-.2-.576-1.484h-.078a4.4,4.4,0,0,1-1.548,1.313,5,5,0,0,1-2.075.366,3.356,3.356,0,0,1-2.476-.9,3.45,3.45,0,0,1-.9-2.559,2.881,2.881,0,0,1,1.216-2.563,7.045,7.045,0,0,1,3.667-.913l1.895-.059v-.479a1.485,1.485,0,0,0-1.7-1.66,7.743,7.743,0,0,0-3.076.791l-.986-2.012a8.876,8.876,0,0,1,4.18-.986,5.206,5.206,0,0,1,3.369.957,3.537,3.537,0,0,1,1.172,2.91V21Zm-.879-5.059-1.152.039a3.69,3.69,0,0,0-1.934.469,1.472,1.472,0,0,0-.635,1.309q0,1.26,1.445,1.26a2.289,2.289,0,0,0,1.655-.6,2.092,2.092,0,0,0,.62-1.582ZM205.2,8.881V8.617A27.494,27.494,0,0,0,207.5,5.678h3.34v.205q-.508.508-1.733,1.509t-1.919,1.489Zm15.43,1a4.8,4.8,0,0,1,1.006.088l-.225,2.793a3.412,3.412,0,0,0-.879-.1,3.159,3.159,0,0,0-2.222.732,2.648,2.648,0,0,0-.8,2.051V21h-2.979V10.082h2.256l.439,1.836h.146a4.1,4.1,0,0,1,1.372-1.479A3.383,3.383,0,0,1,220.632,9.877ZM227.741,12a1.889,1.889,0,0,0-1.484.6,2.78,2.78,0,0,0-.615,1.7h4.18a2.483,2.483,0,0,0-.576-1.7A1.951,1.951,0,0,0,227.741,12Zm.42,9.2a5.635,5.635,0,0,1-4.121-1.455,5.509,5.509,0,0,1-1.484-4.121,6.06,6.06,0,0,1,1.372-4.243,4.886,4.886,0,0,1,3.794-1.5,4.809,4.809,0,0,1,3.6,1.318,4.988,4.988,0,0,1,1.289,3.643v1.445h-7.041a2.867,2.867,0,0,0,.752,1.982,2.646,2.646,0,0,0,1.973.713,8.189,8.189,0,0,0,1.865-.205A9.333,9.333,0,0,0,232,18.119v2.3a6.994,6.994,0,0,1-1.67.581A10.529,10.529,0,0,1,228.161,21.2ZM241.97,21l-.576-1.484h-.078a4.4,4.4,0,0,1-1.548,1.313,5,5,0,0,1-2.075.366,3.356,3.356,0,0,1-2.476-.9,3.45,3.45,0,0,1-.9-2.559,2.881,2.881,0,0,1,1.216-2.563,7.045,7.045,0,0,1,3.667-.913l1.895-.059v-.479a1.485,1.485,0,0,0-1.7-1.66,7.743,7.743,0,0,0-3.076.791l-.986-2.012a8.876,8.876,0,0,1,4.18-.986,5.206,5.206,0,0,1,3.369.957,3.537,3.537,0,0,1,1.172,2.91V21Zm-.879-5.059-1.152.039a3.69,3.69,0,0,0-1.934.469,1.472,1.472,0,0,0-.635,1.309q0,1.26,1.445,1.26a2.289,2.289,0,0,0,1.655-.6,2.092,2.092,0,0,0,.62-1.582ZM255.768,21.2a3.546,3.546,0,0,1-3.022-1.494,6.869,6.869,0,0,1-1.1-4.141,6.876,6.876,0,0,1,1.118-4.185,3.632,3.632,0,0,1,3.081-1.5,3.562,3.562,0,0,1,3.145,1.6h.1a12.176,12.176,0,0,1-.225-2.178V5.8h2.988V21h-2.285l-.576-1.416h-.127A3.408,3.408,0,0,1,255.768,21.2Zm1.045-2.373a2.018,2.018,0,0,0,1.675-.664,3.863,3.863,0,0,0,.581-2.256V15.58a4.464,4.464,0,0,0-.542-2.52,2.013,2.013,0,0,0-1.763-.762,1.748,1.748,0,0,0-1.548.845,4.507,4.507,0,0,0-.552,2.456,4.271,4.271,0,0,0,.557,2.417A1.819,1.819,0,0,0,256.813,18.822ZM269.489,12a1.889,1.889,0,0,0-1.484.6,2.78,2.78,0,0,0-.615,1.7h4.18a2.483,2.483,0,0,0-.576-1.7A1.951,1.951,0,0,0,269.489,12Zm.42,9.2a5.635,5.635,0,0,1-4.121-1.455,5.509,5.509,0,0,1-1.484-4.121,6.06,6.06,0,0,1,1.372-4.243,4.886,4.886,0,0,1,3.794-1.5,4.809,4.809,0,0,1,3.6,1.318,4.988,4.988,0,0,1,1.289,3.643v1.445h-7.041a2.867,2.867,0,0,0,.752,1.982,2.646,2.646,0,0,0,1.973.713,8.189,8.189,0,0,0,1.865-.205,9.333,9.333,0,0,0,1.836-.654v2.3a6.994,6.994,0,0,1-1.67.581A10.529,10.529,0,0,1,269.909,21.2Zm21.846-.2h-2.979V14.623a3.212,3.212,0,0,0-.4-1.772,1.391,1.391,0,0,0-1.245-.591,1.8,1.8,0,0,0-1.66.84,5.509,5.509,0,0,0-.518,2.764V21h-2.979V10.082h2.275l.4,1.4h.166a3.026,3.026,0,0,1,1.27-1.177,4.122,4.122,0,0,1,1.9-.425,3.43,3.43,0,0,1,3.32,1.6h.264a2.95,2.95,0,0,1,1.294-1.182,4.315,4.315,0,0,1,1.929-.42,3.807,3.807,0,0,1,2.808.952,4.181,4.181,0,0,1,.952,3.052V21h-2.988V14.623a3.212,3.212,0,0,0-.4-1.772,1.391,1.391,0,0,0-1.245-.591,1.858,1.858,0,0,0-1.636.781,4.433,4.433,0,0,0-.542,2.48Zm14.385-9a1.889,1.889,0,0,0-1.484.6,2.78,2.78,0,0,0-.615,1.7h4.18a2.483,2.483,0,0,0-.576-1.7A1.951,1.951,0,0,0,306.139,12Zm.42,9.2a5.635,5.635,0,0,1-4.121-1.455,5.509,5.509,0,0,1-1.484-4.121,6.06,6.06,0,0,1,1.372-4.243,4.886,4.886,0,0,1,3.794-1.5,4.809,4.809,0,0,1,3.6,1.318,4.988,4.988,0,0,1,1.289,3.643v1.445h-7.041a2.867,2.867,0,0,0,.752,1.982,2.646,2.646,0,0,0,1.973.713,8.189,8.189,0,0,0,1.865-.205,9.333,9.333,0,0,0,1.836-.654v2.3a6.994,6.994,0,0,1-1.67.581A10.529,10.529,0,0,1,306.559,21.2Zm6,4.609a6.934,6.934,0,0,1-1.963-.244V23.217a5.308,5.308,0,0,0,1.4.186,1.344,1.344,0,0,0,1.1-.42,1.91,1.91,0,0,0,.347-1.24V10.082h2.979v12.1a3.494,3.494,0,0,1-1.006,2.681A4.013,4.013,0,0,1,312.555,25.8Zm.752-18.545q0-1.455,1.621-1.455T316.55,7.26a1.419,1.419,0,0,1-.405,1.079,1.7,1.7,0,0,1-1.216.386Q313.307,8.725,313.307,7.26Zm8.6,8.262a4.582,4.582,0,0,0,.532,2.451,1.9,1.9,0,0,0,1.733.83,1.873,1.873,0,0,0,1.714-.825,4.648,4.648,0,0,0,.522-2.456,4.51,4.51,0,0,0-.527-2.432,2.242,2.242,0,0,0-3.447,0A4.506,4.506,0,0,0,321.911,15.521Zm7.549,0a5.867,5.867,0,0,1-1.406,4.17,5.1,5.1,0,0,1-3.916,1.5,5.478,5.478,0,0,1-2.773-.688,4.581,4.581,0,0,1-1.846-1.978,6.645,6.645,0,0,1-.645-3.008,5.835,5.835,0,0,1,1.4-4.16A5.128,5.128,0,0,1,324.2,9.877a5.509,5.509,0,0,1,2.773.684,4.563,4.563,0,0,1,1.846,1.963A6.584,6.584,0,0,1,329.46,15.521Zm8.555-5.645a4.8,4.8,0,0,1,1.006.088l-.225,2.793a3.412,3.412,0,0,0-.879-.1,3.159,3.159,0,0,0-2.222.732,2.648,2.648,0,0,0-.8,2.051V21h-2.979V10.082h2.256l.439,1.836h.146a4.1,4.1,0,0,1,1.372-1.479A3.383,3.383,0,0,1,338.014,9.877ZM347.536,21l-.576-1.484h-.078a4.4,4.4,0,0,1-1.548,1.313,5,5,0,0,1-2.075.366,3.356,3.356,0,0,1-2.476-.9,3.45,3.45,0,0,1-.9-2.559,2.881,2.881,0,0,1,1.216-2.563,7.045,7.045,0,0,1,3.667-.913l1.895-.059v-.479a1.485,1.485,0,0,0-1.7-1.66,7.743,7.743,0,0,0-3.076.791l-.986-2.012a8.876,8.876,0,0,1,4.18-.986,5.206,5.206,0,0,1,3.369.957,3.537,3.537,0,0,1,1.172,2.91V21Zm-.879-5.059-1.152.039a3.69,3.69,0,0,0-1.934.469,1.472,1.472,0,0,0-.635,1.309q0,1.26,1.445,1.26a2.289,2.289,0,0,0,1.655-.6,2.092,2.092,0,0,0,.62-1.582Z" transform="translate(-564.897 3517.549)" fill="#fff"/>
    <path id="Trazado_5117" data-name="Trazado 5117" d="M716.731,3611.99v-31.954h-4v31.954l-9.414-3.405c4.57,5.242,8.885,13.7,11.414,20.514,2.527-6.816,6.842-15.272,11.412-20.514Z" transform="translate(-1073 -6)" fill="#14160e"/>
    <path id="Trazado_5126" data-name="Trazado 5126" d="M12,0H428.5a12,12,0,0,1,12,12V50.609a12,12,0,0,1-12,12H12a12,12,0,0,1-12-12V12A12,12,0,0,1,12,0Z" transform="translate(-578.725 3771.457)" fill="url(#linear-gradient)"/>
    <path id="Trazado_5127" data-name="Trazado 5127" d="M110.046,21h-2.979V6.723h8.184V9.2h-5.205v3.682h4.844v2.471h-4.844Zm10.137-5.479a4.582,4.582,0,0,0,.532,2.451,1.9,1.9,0,0,0,1.733.83,1.873,1.873,0,0,0,1.714-.825,4.648,4.648,0,0,0,.522-2.456,4.51,4.51,0,0,0-.527-2.432,2.242,2.242,0,0,0-3.447,0A4.506,4.506,0,0,0,120.182,15.521Zm7.549,0a5.867,5.867,0,0,1-1.406,4.17,5.1,5.1,0,0,1-3.916,1.5,5.478,5.478,0,0,1-2.773-.688,4.581,4.581,0,0,1-1.846-1.978,6.645,6.645,0,0,1-.645-3.008,5.835,5.835,0,0,1,1.4-4.16,5.128,5.128,0,0,1,3.926-1.484,5.509,5.509,0,0,1,2.773.684,4.563,4.563,0,0,1,1.846,1.963A6.584,6.584,0,0,1,127.731,15.521Zm8.555-5.645a4.8,4.8,0,0,1,1.006.088l-.225,2.793a3.412,3.412,0,0,0-.879-.1,3.159,3.159,0,0,0-2.222.732,2.648,2.648,0,0,0-.8,2.051V21h-2.979V10.082h2.256l.439,1.836h.146a4.1,4.1,0,0,1,1.372-1.479A3.383,3.383,0,0,1,136.286,9.877ZM149.05,21h-2.979V14.623a3.212,3.212,0,0,0-.4-1.772,1.391,1.391,0,0,0-1.245-.591,1.8,1.8,0,0,0-1.66.84,5.509,5.509,0,0,0-.518,2.764V21h-2.979V10.082h2.275l.4,1.4h.166a3.026,3.026,0,0,1,1.27-1.177,4.122,4.122,0,0,1,1.9-.425,3.43,3.43,0,0,1,3.32,1.6h.264a2.95,2.95,0,0,1,1.294-1.182,4.315,4.315,0,0,1,1.929-.42,3.807,3.807,0,0,1,2.808.952,4.181,4.181,0,0,1,.952,3.052V21h-2.988V14.623a3.212,3.212,0,0,0-.4-1.772,1.391,1.391,0,0,0-1.245-.591,1.858,1.858,0,0,0-1.636.781,4.433,4.433,0,0,0-.542,2.48Zm17.6,0-.4-1.4h-.156a3.143,3.143,0,0,1-1.357,1.177,4.634,4.634,0,0,1-2,.415,3.812,3.812,0,0,1-2.9-1.03,4.145,4.145,0,0,1-.977-2.964V10.082h2.979v6.377a3.063,3.063,0,0,0,.42,1.772,1.528,1.528,0,0,0,1.338.591,2.011,2.011,0,0,0,1.807-.835,5.178,5.178,0,0,0,.557-2.769V10.082h2.979V21Zm8.389,0h-2.979V5.8h2.979Zm10.059,0-.576-1.484h-.078a4.4,4.4,0,0,1-1.548,1.313,5,5,0,0,1-2.075.366,3.356,3.356,0,0,1-2.476-.9,3.45,3.45,0,0,1-.9-2.559,2.881,2.881,0,0,1,1.216-2.563,7.045,7.045,0,0,1,3.667-.913l1.895-.059v-.479a1.485,1.485,0,0,0-1.7-1.66,7.743,7.743,0,0,0-3.076.791l-.986-2.012a8.876,8.876,0,0,1,4.18-.986,5.206,5.206,0,0,1,3.369.957,3.537,3.537,0,0,1,1.172,2.91V21Zm-.879-5.059-1.152.039a3.69,3.69,0,0,0-1.934.469,1.472,1.472,0,0,0-.635,1.309q0,1.26,1.445,1.26a2.289,2.289,0,0,0,1.655-.6,2.092,2.092,0,0,0,.62-1.582Zm12.119-6.064a4.8,4.8,0,0,1,1.006.088l-.225,2.793a3.412,3.412,0,0,0-.879-.1,3.159,3.159,0,0,0-2.222.732,2.648,2.648,0,0,0-.8,2.051V21h-2.979V10.082H192.5l.439,1.836h.146a4.1,4.1,0,0,1,1.372-1.479A3.383,3.383,0,0,1,196.335,9.877ZM209.04,12a1.889,1.889,0,0,0-1.484.6,2.78,2.78,0,0,0-.615,1.7h4.18a2.483,2.483,0,0,0-.576-1.7A1.951,1.951,0,0,0,209.04,12Zm.42,9.2a5.635,5.635,0,0,1-4.121-1.455,5.509,5.509,0,0,1-1.484-4.121,6.06,6.06,0,0,1,1.372-4.243,4.886,4.886,0,0,1,3.794-1.5,4.809,4.809,0,0,1,3.6,1.318,4.988,4.988,0,0,1,1.289,3.643v1.445h-7.041a2.867,2.867,0,0,0,.752,1.982,2.646,2.646,0,0,0,1.973.713,8.189,8.189,0,0,0,1.865-.205,9.333,9.333,0,0,0,1.836-.654v2.3a6.994,6.994,0,0,1-1.67.581A10.529,10.529,0,0,1,209.46,21.2Zm9.854-.2h-2.979V5.8h2.979Zm10.693-5.479a4.582,4.582,0,0,0,.532,2.451,1.9,1.9,0,0,0,1.733.83,1.873,1.873,0,0,0,1.714-.825,4.648,4.648,0,0,0,.522-2.456,4.51,4.51,0,0,0-.527-2.432,2.242,2.242,0,0,0-3.447,0A4.506,4.506,0,0,0,230.007,15.521Zm7.549,0a5.867,5.867,0,0,1-1.406,4.17,5.1,5.1,0,0,1-3.916,1.5,5.478,5.478,0,0,1-2.773-.688,4.581,4.581,0,0,1-1.846-1.978,6.645,6.645,0,0,1-.645-3.008,5.835,5.835,0,0,1,1.4-4.16,5.128,5.128,0,0,1,3.926-1.484,5.509,5.509,0,0,1,2.773.684,4.563,4.563,0,0,1,1.846,1.963A6.584,6.584,0,0,1,237.555,15.521Zm8.535-5.645a3.532,3.532,0,0,1,3.027,1.509,6.923,6.923,0,0,1,1.094,4.136,6.8,6.8,0,0,1-1.128,4.189,3.939,3.939,0,0,1-6.089.088h-.205l-.5,1.2h-2.275V5.8h2.979V9.34q0,.674-.117,2.158h.117A3.446,3.446,0,0,1,246.091,9.877Zm-.957,2.383a1.881,1.881,0,0,0-1.611.679,3.9,3.9,0,0,0-.527,2.241V15.5a4.6,4.6,0,0,0,.522,2.52,1.865,1.865,0,0,0,1.655.762,1.661,1.661,0,0,0,1.46-.845,4.572,4.572,0,0,0,.542-2.456,4.332,4.332,0,0,0-.547-2.417A1.715,1.715,0,0,0,245.134,12.26Zm6.66,13.545a6.934,6.934,0,0,1-1.963-.244V23.217a5.308,5.308,0,0,0,1.4.186,1.344,1.344,0,0,0,1.1-.42,1.91,1.91,0,0,0,.347-1.24V10.082h2.979v12.1a3.494,3.494,0,0,1-1.006,2.681A4.013,4.013,0,0,1,251.794,25.8Zm.752-18.545q0-1.455,1.621-1.455t1.621,1.455a1.419,1.419,0,0,1-.405,1.079,1.7,1.7,0,0,1-1.216.386Q252.546,8.725,252.546,7.26ZM263.3,12a1.889,1.889,0,0,0-1.484.6,2.78,2.78,0,0,0-.615,1.7h4.18a2.483,2.483,0,0,0-.576-1.7A1.951,1.951,0,0,0,263.3,12Zm.42,9.2A5.635,5.635,0,0,1,259.6,19.74a5.509,5.509,0,0,1-1.484-4.121,6.06,6.06,0,0,1,1.372-4.243,4.886,4.886,0,0,1,3.794-1.5,4.809,4.809,0,0,1,3.6,1.318,4.988,4.988,0,0,1,1.289,3.643v1.445H261.13a2.867,2.867,0,0,0,.752,1.982,2.646,2.646,0,0,0,1.973.713,8.189,8.189,0,0,0,1.865-.205,9.333,9.333,0,0,0,1.836-.654v2.3a6.994,6.994,0,0,1-1.67.581A10.529,10.529,0,0,1,263.718,21.2Zm11.475-2.373a6.456,6.456,0,0,0,1.875-.342V20.7a6.685,6.685,0,0,1-2.734.5,3.347,3.347,0,0,1-2.6-.9,3.932,3.932,0,0,1-.815-2.71V12.318h-1.426v-1.26l1.641-1,.859-2.3h1.9v2.324h3.057v2.236h-3.057v5.264a1.163,1.163,0,0,0,.356.938A1.406,1.406,0,0,0,275.192,18.822ZM279.147,7.26q0-1.455,1.621-1.455t1.621,1.455a1.419,1.419,0,0,1-.405,1.079,1.7,1.7,0,0,1-1.216.386Q279.147,8.725,279.147,7.26ZM282.253,21h-2.979V10.082h2.979Zm5.723,0-4.16-10.918h3.115L289.04,16.3a11.1,11.1,0,0,1,.439,2.236h.059a9.726,9.726,0,0,1,.439-2.236l2.1-6.221h3.115L291.032,21Zm11.152-5.479a4.582,4.582,0,0,0,.532,2.451,1.9,1.9,0,0,0,1.733.83,1.873,1.873,0,0,0,1.714-.825,4.648,4.648,0,0,0,.522-2.456,4.51,4.51,0,0,0-.527-2.432,2.242,2.242,0,0,0-3.447,0A4.506,4.506,0,0,0,299.128,15.521Zm7.549,0a5.867,5.867,0,0,1-1.406,4.17,5.1,5.1,0,0,1-3.916,1.5,5.478,5.478,0,0,1-2.773-.688,4.581,4.581,0,0,1-1.846-1.978,6.645,6.645,0,0,1-.645-3.008,5.835,5.835,0,0,1,1.4-4.16,5.128,5.128,0,0,1,3.926-1.484,5.509,5.509,0,0,1,2.773.684,4.563,4.563,0,0,1,1.846,1.963A6.584,6.584,0,0,1,306.677,15.521Z" transform="translate(-564.897 3788.05)" fill="#fff"/>
    <path id="Trazado_5118" data-name="Trazado 5118" d="M716.731,3882.49v-31.954h-4v31.955l-9.414-3.405c4.57,5.241,8.885,13.7,11.414,20.513,2.527-6.815,6.842-15.272,11.412-20.513Z" transform="translate(-1073 -6)" fill="#14160e"/>
    <path id="Trazado_5124" data-name="Trazado 5124" d="M12,0H428.5a12,12,0,0,1,12,12V50.609a12,12,0,0,1-12,12H12a12,12,0,0,1-12-12V12A12,12,0,0,1,12,0Z" transform="translate(-578.725 3633.569)" fill="#4f5538"/>
    <path id="Trazado_5125" data-name="Trazado 5125" d="M45.49,21V6.723h3.027V21Zm9.844.2A3.546,3.546,0,0,1,52.311,19.7a6.869,6.869,0,0,1-1.1-4.141,6.876,6.876,0,0,1,1.118-4.185,3.632,3.632,0,0,1,3.081-1.5,3.562,3.562,0,0,1,3.145,1.6h.1A12.177,12.177,0,0,1,58.429,9.3V5.8h2.988V21H59.133l-.576-1.416h-.127A3.408,3.408,0,0,1,55.334,21.2Zm1.045-2.373a2.018,2.018,0,0,0,1.675-.664,3.863,3.863,0,0,0,.581-2.256V15.58a4.464,4.464,0,0,0-.542-2.52A2.013,2.013,0,0,0,56.33,12.3a1.748,1.748,0,0,0-1.548.845A4.507,4.507,0,0,0,54.23,15.6a4.271,4.271,0,0,0,.557,2.417A1.819,1.819,0,0,0,56.379,18.822ZM69.054,12a1.889,1.889,0,0,0-1.484.6,2.78,2.78,0,0,0-.615,1.7h4.18a2.483,2.483,0,0,0-.576-1.7A1.951,1.951,0,0,0,69.054,12Zm.42,9.2a5.635,5.635,0,0,1-4.121-1.455,5.509,5.509,0,0,1-1.484-4.121,6.06,6.06,0,0,1,1.372-4.243,4.886,4.886,0,0,1,3.794-1.5,4.809,4.809,0,0,1,3.6,1.318,4.988,4.988,0,0,1,1.289,3.643v1.445H66.887a2.867,2.867,0,0,0,.752,1.982,2.646,2.646,0,0,0,1.973.713,8.189,8.189,0,0,0,1.865-.205,9.333,9.333,0,0,0,1.836-.654v2.3a6.994,6.994,0,0,1-1.67.581A10.529,10.529,0,0,1,69.474,21.2ZM86.428,21H83.449V14.623a3.063,3.063,0,0,0-.42-1.772,1.528,1.528,0,0,0-1.338-.591,2.011,2.011,0,0,0-1.807.835,5.178,5.178,0,0,0-.557,2.769V21H76.349V10.082h2.275l.4,1.4h.166a3.148,3.148,0,0,1,1.372-1.2,4.672,4.672,0,0,1,1.987-.405,3.818,3.818,0,0,1,2.891,1.03,4.134,4.134,0,0,1,.986,2.974Zm7.666-2.178a6.457,6.457,0,0,0,1.875-.342V20.7a6.685,6.685,0,0,1-2.734.5,3.347,3.347,0,0,1-2.6-.9,3.932,3.932,0,0,1-.815-2.71V12.318H88.39v-1.26l1.641-1,.859-2.3h1.9v2.324h3.057v2.236H92.795v5.264a1.163,1.163,0,0,0,.356.938A1.406,1.406,0,0,0,94.094,18.822ZM98.049,7.26q0-1.455,1.621-1.455t1.621,1.455a1.419,1.419,0,0,1-.405,1.079,1.7,1.7,0,0,1-1.216.386Q98.049,8.725,98.049,7.26ZM101.154,21H98.176V10.082h2.979Zm9.16-8.682h-2.578V21h-2.979V12.318h-1.641V10.883l1.641-.8v-.8a3.577,3.577,0,0,1,.918-2.725,4.207,4.207,0,0,1,2.939-.859,7.65,7.65,0,0,1,2.744.459L110.6,8.344a5.552,5.552,0,0,0-1.66-.283,1.075,1.075,0,0,0-.918.376,1.555,1.555,0,0,0-.283.962v.684h2.578ZM111.9,7.26q0-1.455,1.621-1.455t1.621,1.455a1.419,1.419,0,0,1-.405,1.079,1.7,1.7,0,0,1-1.216.386Q111.9,8.725,111.9,7.26ZM115,21h-2.979V10.082H115Zm7.549.2q-5.1,0-5.1-5.6a5.969,5.969,0,0,1,1.387-4.253,5.2,5.2,0,0,1,3.975-1.47,7.577,7.577,0,0,1,3.4.742l-.879,2.3q-.7-.283-1.309-.464a4.216,4.216,0,0,0-1.211-.181q-2.324,0-2.324,3.3,0,3.2,2.324,3.2a5.3,5.3,0,0,0,1.592-.229,5.747,5.747,0,0,0,1.465-.718v2.549a4.8,4.8,0,0,1-1.46.635A8.21,8.21,0,0,1,122.551,21.2Zm12.783-.2-.576-1.484h-.078a4.4,4.4,0,0,1-1.548,1.313,5,5,0,0,1-2.075.366,3.356,3.356,0,0,1-2.476-.9,3.45,3.45,0,0,1-.9-2.559,2.881,2.881,0,0,1,1.216-2.563,7.045,7.045,0,0,1,3.667-.913l1.895-.059v-.479a1.485,1.485,0,0,0-1.7-1.66,7.743,7.743,0,0,0-3.076.791l-.986-2.012a8.876,8.876,0,0,1,4.18-.986,5.206,5.206,0,0,1,3.369.957,3.537,3.537,0,0,1,1.172,2.91V21Zm-.879-5.059-1.152.039a3.69,3.69,0,0,0-1.934.469,1.472,1.472,0,0,0-.635,1.309q0,1.26,1.445,1.26a2.289,2.289,0,0,0,1.655-.6,2.092,2.092,0,0,0,.62-1.582Zm12.119-6.064a4.8,4.8,0,0,1,1.006.088l-.225,2.793a3.412,3.412,0,0,0-.879-.1,3.159,3.159,0,0,0-2.222.732,2.648,2.648,0,0,0-.8,2.051V21H140.48V10.082h2.256l.439,1.836h.146a4.1,4.1,0,0,1,1.372-1.479A3.383,3.383,0,0,1,146.574,9.877ZM157.736,21h-2.979V5.8h2.979Zm10.059,0-.576-1.484h-.078a4.4,4.4,0,0,1-1.548,1.313,5,5,0,0,1-2.075.366,3.356,3.356,0,0,1-2.476-.9,3.45,3.45,0,0,1-.9-2.559,2.881,2.881,0,0,1,1.216-2.563,7.045,7.045,0,0,1,3.667-.913l1.895-.059v-.479a1.485,1.485,0,0,0-1.7-1.66,7.743,7.743,0,0,0-3.076.791l-.986-2.012a8.876,8.876,0,0,1,4.18-.986,5.206,5.206,0,0,1,3.369.957,3.537,3.537,0,0,1,1.172,2.91V21Zm-.879-5.059-1.152.039a3.69,3.69,0,0,0-1.934.469,1.472,1.472,0,0,0-.635,1.309q0,1.26,1.445,1.26a2.289,2.289,0,0,0,1.655-.6,2.092,2.092,0,0,0,.62-1.582Zm13.643,1.816a3.006,3.006,0,0,1-1.167,2.559,5.766,5.766,0,0,1-3.491.879,10.965,10.965,0,0,1-2.031-.161,7.683,7.683,0,0,1-1.572-.474V18.1a10.383,10.383,0,0,0,1.87.654,7.572,7.572,0,0,0,1.831.264q1.621,0,1.621-.937a.782.782,0,0,0-.215-.571,3.115,3.115,0,0,0-.742-.5q-.527-.278-1.406-.649a8.834,8.834,0,0,1-1.851-.977,2.749,2.749,0,0,1-.859-1.03,3.4,3.4,0,0,1-.269-1.431,2.594,2.594,0,0,1,1.128-2.251,5.494,5.494,0,0,1,3.2-.8,9.078,9.078,0,0,1,3.838.859l-.9,2.148q-.82-.352-1.533-.576a4.815,4.815,0,0,0-1.455-.225q-1.318,0-1.318.713a.838.838,0,0,0,.425.693,11.552,11.552,0,0,0,1.86.869,8.643,8.643,0,0,1,1.875.967,2.859,2.859,0,0,1,.879,1.035A3.181,3.181,0,0,1,180.558,17.758ZM194.074,21.2a3.621,3.621,0,0,1-3.018-1.4H190.9q.156,1.367.156,1.582V25.8h-2.979V10.082H190.5l.42,1.416h.137a3.446,3.446,0,0,1,3.1-1.621,3.543,3.543,0,0,1,3.027,1.494,6.91,6.91,0,0,1,1.094,4.15,8.2,8.2,0,0,1-.513,3.037,4.26,4.26,0,0,1-1.46,1.963A3.741,3.741,0,0,1,194.074,21.2ZM193.2,12.26a1.881,1.881,0,0,0-1.611.679,3.9,3.9,0,0,0-.527,2.241V15.5a4.6,4.6,0,0,0,.522,2.52,1.865,1.865,0,0,0,1.655.762q2,0,2-3.3a4.713,4.713,0,0,0-.493-2.417A1.683,1.683,0,0,0,193.2,12.26Zm13.633-2.383a4.8,4.8,0,0,1,1.006.088l-.225,2.793a3.412,3.412,0,0,0-.879-.1,3.159,3.159,0,0,0-2.222.732,2.648,2.648,0,0,0-.8,2.051V21h-2.979V10.082h2.256l.439,1.836h.146a4.1,4.1,0,0,1,1.372-1.479A3.383,3.383,0,0,1,206.828,9.877Zm2.861-2.617q0-1.455,1.621-1.455t1.621,1.455a1.419,1.419,0,0,1-.405,1.079,1.7,1.7,0,0,1-1.216.386Q209.689,8.725,209.689,7.26ZM212.795,21h-2.979V10.082h2.979ZM226,21h-2.979V14.623a3.063,3.063,0,0,0-.42-1.772,1.528,1.528,0,0,0-1.338-.591,2.011,2.011,0,0,0-1.807.835,5.178,5.178,0,0,0-.557,2.769V21H215.92V10.082H218.2l.4,1.4h.166a3.148,3.148,0,0,1,1.372-1.2,4.672,4.672,0,0,1,1.987-.405,3.818,3.818,0,0,1,2.891,1.03A4.134,4.134,0,0,1,226,13.881Zm7.5.2q-5.1,0-5.1-5.6a5.969,5.969,0,0,1,1.387-4.253,5.2,5.2,0,0,1,3.975-1.47,7.577,7.577,0,0,1,3.4.742l-.879,2.3q-.7-.283-1.309-.464a4.216,4.216,0,0,0-1.211-.181q-2.324,0-2.324,3.3,0,3.2,2.324,3.2a5.3,5.3,0,0,0,1.592-.229,5.747,5.747,0,0,0,1.465-.718v2.549a4.8,4.8,0,0,1-1.46.635A8.21,8.21,0,0,1,233.5,21.2ZM239.22,7.26q0-1.455,1.621-1.455t1.621,1.455a1.419,1.419,0,0,1-.405,1.079,1.7,1.7,0,0,1-1.216.386Q239.22,8.725,239.22,7.26ZM242.326,21h-2.979V10.082h2.979Zm9.121.2a3.621,3.621,0,0,1-3.018-1.4h-.156q.156,1.367.156,1.582V25.8h-2.979V10.082h2.422l.42,1.416h.137a3.446,3.446,0,0,1,3.1-1.621,3.543,3.543,0,0,1,3.027,1.494,6.91,6.91,0,0,1,1.094,4.15,8.2,8.2,0,0,1-.513,3.037,4.26,4.26,0,0,1-1.46,1.963A3.741,3.741,0,0,1,251.447,21.2Zm-.879-8.936a1.881,1.881,0,0,0-1.611.679,3.9,3.9,0,0,0-.527,2.241V15.5a4.6,4.6,0,0,0,.522,2.52,1.865,1.865,0,0,0,1.655.762q2,0,2-3.3a4.713,4.713,0,0,0-.493-2.417A1.683,1.683,0,0,0,250.568,12.26ZM265.041,21l-.576-1.484h-.078a4.4,4.4,0,0,1-1.548,1.313,5,5,0,0,1-2.075.366,3.356,3.356,0,0,1-2.476-.9,3.45,3.45,0,0,1-.9-2.559,2.881,2.881,0,0,1,1.216-2.563,7.045,7.045,0,0,1,3.667-.913l1.895-.059v-.479a1.485,1.485,0,0,0-1.7-1.66,7.743,7.743,0,0,0-3.076.791l-.986-2.012a8.876,8.876,0,0,1,4.18-.986,5.206,5.206,0,0,1,3.369.957,3.537,3.537,0,0,1,1.172,2.91V21Zm-.879-5.059-1.152.039a3.69,3.69,0,0,0-1.934.469,1.472,1.472,0,0,0-.635,1.309q0,1.26,1.445,1.26a2.289,2.289,0,0,0,1.655-.6,2.092,2.092,0,0,0,.62-1.582Zm9,5.059h-2.979V5.8h2.979Zm7.646-9a1.889,1.889,0,0,0-1.484.6,2.78,2.78,0,0,0-.615,1.7h4.18a2.483,2.483,0,0,0-.576-1.7A1.951,1.951,0,0,0,280.812,12Zm.42,9.2a5.635,5.635,0,0,1-4.121-1.455,5.509,5.509,0,0,1-1.484-4.121A6.06,6.06,0,0,1,277,11.376a4.886,4.886,0,0,1,3.794-1.5,4.809,4.809,0,0,1,3.6,1.318,4.988,4.988,0,0,1,1.289,3.643v1.445h-7.041a2.867,2.867,0,0,0,.752,1.982,2.646,2.646,0,0,0,1.973.713,8.189,8.189,0,0,0,1.865-.205,9.333,9.333,0,0,0,1.836-.654v2.3A6.994,6.994,0,0,1,283.4,21,10.529,10.529,0,0,1,281.232,21.2Zm14.492-3.437a3.006,3.006,0,0,1-1.167,2.559,5.766,5.766,0,0,1-3.491.879,10.965,10.965,0,0,1-2.031-.161,7.683,7.683,0,0,1-1.572-.474V18.1a10.383,10.383,0,0,0,1.87.654,7.572,7.572,0,0,0,1.831.264q1.621,0,1.621-.937a.783.783,0,0,0-.215-.571,3.115,3.115,0,0,0-.742-.5q-.527-.278-1.406-.649a8.834,8.834,0,0,1-1.851-.977,2.749,2.749,0,0,1-.859-1.03,3.4,3.4,0,0,1-.269-1.431,2.594,2.594,0,0,1,1.128-2.251,5.494,5.494,0,0,1,3.2-.8,9.078,9.078,0,0,1,3.838.859l-.9,2.148q-.82-.352-1.533-.576a4.815,4.815,0,0,0-1.455-.225q-1.318,0-1.318.713a.838.838,0,0,0,.425.693,11.552,11.552,0,0,0,1.86.869,8.642,8.642,0,0,1,1.875.967,2.86,2.86,0,0,1,.879,1.035A3.181,3.181,0,0,1,295.724,17.758ZM307.678,21.2q-5.1,0-5.1-5.6a5.969,5.969,0,0,1,1.387-4.253,5.2,5.2,0,0,1,3.975-1.47,7.577,7.577,0,0,1,3.4.742l-.879,2.3q-.7-.283-1.309-.464a4.216,4.216,0,0,0-1.211-.181q-2.324,0-2.324,3.3,0,3.2,2.324,3.2a5.3,5.3,0,0,0,1.592-.229A5.747,5.747,0,0,0,311,17.836v2.549a4.8,4.8,0,0,1-1.46.635A8.21,8.21,0,0,1,307.678,21.2Zm12.783-.2-.576-1.484h-.078a4.4,4.4,0,0,1-1.548,1.313,5,5,0,0,1-2.075.366,3.356,3.356,0,0,1-2.476-.9,3.45,3.45,0,0,1-.9-2.559,2.881,2.881,0,0,1,1.216-2.563,7.045,7.045,0,0,1,3.667-.913l1.895-.059v-.479a1.485,1.485,0,0,0-1.7-1.66,7.743,7.743,0,0,0-3.076.791l-.986-2.012A8.876,8.876,0,0,1,318,9.857a5.206,5.206,0,0,1,3.369.957,3.537,3.537,0,0,1,1.172,2.91V21Zm-.879-5.059-1.152.039a3.69,3.69,0,0,0-1.934.469,1.472,1.472,0,0,0-.635,1.309q0,1.26,1.445,1.26a2.289,2.289,0,0,0,1.655-.6,2.092,2.092,0,0,0,.62-1.582ZM333.342,21l-.4-1.4h-.156a3.142,3.142,0,0,1-1.357,1.177,4.634,4.634,0,0,1-2,.415,3.812,3.812,0,0,1-2.9-1.03,4.145,4.145,0,0,1-.977-2.964V10.082h2.979v6.377a3.063,3.063,0,0,0,.42,1.772,1.528,1.528,0,0,0,1.338.591,2.011,2.011,0,0,0,1.807-.835,5.178,5.178,0,0,0,.557-2.769V10.082h2.979V21Zm13.027-3.242a3.006,3.006,0,0,1-1.167,2.559,5.766,5.766,0,0,1-3.491.879,10.965,10.965,0,0,1-2.031-.161,7.683,7.683,0,0,1-1.572-.474V18.1a10.383,10.383,0,0,0,1.87.654,7.572,7.572,0,0,0,1.831.264q1.621,0,1.621-.937a.783.783,0,0,0-.215-.571,3.115,3.115,0,0,0-.742-.5q-.527-.278-1.406-.649a8.834,8.834,0,0,1-1.851-.977,2.749,2.749,0,0,1-.859-1.03,3.4,3.4,0,0,1-.269-1.431,2.594,2.594,0,0,1,1.128-2.251,5.494,5.494,0,0,1,3.2-.8,9.078,9.078,0,0,1,3.838.859l-.9,2.148q-.82-.352-1.533-.576a4.815,4.815,0,0,0-1.455-.225q-1.318,0-1.318.713a.838.838,0,0,0,.425.693,11.552,11.552,0,0,0,1.86.869,8.642,8.642,0,0,1,1.875.967,2.86,2.86,0,0,1,.879,1.035A3.181,3.181,0,0,1,346.369,17.758ZM355.627,21l-.576-1.484h-.078a4.4,4.4,0,0,1-1.548,1.313,5,5,0,0,1-2.075.366,3.356,3.356,0,0,1-2.476-.9,3.45,3.45,0,0,1-.9-2.559,2.881,2.881,0,0,1,1.216-2.563,7.045,7.045,0,0,1,3.667-.913l1.895-.059v-.479a1.485,1.485,0,0,0-1.7-1.66,7.743,7.743,0,0,0-3.076.791l-.986-2.012a8.876,8.876,0,0,1,4.18-.986,5.206,5.206,0,0,1,3.369.957,3.537,3.537,0,0,1,1.172,2.91V21Zm-.879-5.059-1.152.039a3.69,3.69,0,0,0-1.934.469,1.472,1.472,0,0,0-.635,1.309q0,1.26,1.445,1.26a2.289,2.289,0,0,0,1.655-.6,2.092,2.092,0,0,0,.62-1.582Zm13.643,1.816a3.006,3.006,0,0,1-1.167,2.559,5.766,5.766,0,0,1-3.491.879,10.965,10.965,0,0,1-2.031-.161,7.683,7.683,0,0,1-1.572-.474V18.1a10.383,10.383,0,0,0,1.87.654,7.572,7.572,0,0,0,1.831.264q1.621,0,1.621-.937a.783.783,0,0,0-.215-.571,3.115,3.115,0,0,0-.742-.5q-.527-.278-1.406-.649a8.834,8.834,0,0,1-1.851-.977,2.749,2.749,0,0,1-.859-1.03,3.4,3.4,0,0,1-.269-1.431,2.594,2.594,0,0,1,1.128-2.251,5.494,5.494,0,0,1,3.2-.8,9.078,9.078,0,0,1,3.838.859l-.9,2.148q-.82-.352-1.533-.576a4.815,4.815,0,0,0-1.455-.225q-1.318,0-1.318.713a.838.838,0,0,0,.425.693,11.552,11.552,0,0,0,1.86.869,8.642,8.642,0,0,1,1.875.967,2.86,2.86,0,0,1,.879,1.035A3.181,3.181,0,0,1,368.39,17.758ZM145.549,43.2a3.546,3.546,0,0,1-3.022-1.494,6.869,6.869,0,0,1-1.1-4.141,6.876,6.876,0,0,1,1.118-4.185,3.632,3.632,0,0,1,3.081-1.5,3.562,3.562,0,0,1,3.145,1.6h.1a12.177,12.177,0,0,1-.225-2.178V27.8h2.988V43h-2.285l-.576-1.416h-.127A3.408,3.408,0,0,1,145.549,43.2Zm1.045-2.373a2.018,2.018,0,0,0,1.675-.664,3.863,3.863,0,0,0,.581-2.256V37.58a4.464,4.464,0,0,0-.542-2.52,2.013,2.013,0,0,0-1.763-.762,1.748,1.748,0,0,0-1.548.845,4.507,4.507,0,0,0-.552,2.456A4.271,4.271,0,0,0,145,40.017,1.819,1.819,0,0,0,146.594,40.822ZM159.269,34a1.889,1.889,0,0,0-1.484.6,2.78,2.78,0,0,0-.615,1.7h4.18a2.483,2.483,0,0,0-.576-1.7A1.951,1.951,0,0,0,159.269,34Zm.42,9.2a5.635,5.635,0,0,1-4.121-1.455,5.509,5.509,0,0,1-1.484-4.121,6.06,6.06,0,0,1,1.372-4.243,4.886,4.886,0,0,1,3.794-1.5,4.809,4.809,0,0,1,3.6,1.318,4.988,4.988,0,0,1,1.289,3.643v1.445H157.1a2.867,2.867,0,0,0,.752,1.982,2.646,2.646,0,0,0,1.973.713,8.189,8.189,0,0,0,1.865-.205,9.333,9.333,0,0,0,1.836-.654v2.3a6.994,6.994,0,0,1-1.67.581A10.529,10.529,0,0,1,159.689,43.2Zm9.854-.2h-2.979V27.8h2.979Zm14.316.2a3.621,3.621,0,0,1-3.018-1.4h-.156q.156,1.367.156,1.582V47.8h-2.979V32.082h2.422l.42,1.416h.137a3.446,3.446,0,0,1,3.1-1.621,3.543,3.543,0,0,1,3.027,1.494,6.91,6.91,0,0,1,1.094,4.15,8.2,8.2,0,0,1-.513,3.037,4.26,4.26,0,0,1-1.46,1.963A3.741,3.741,0,0,1,183.859,43.2Zm-.879-8.936a1.881,1.881,0,0,0-1.611.679,3.9,3.9,0,0,0-.527,2.241V37.5a4.6,4.6,0,0,0,.522,2.52,1.865,1.865,0,0,0,1.655.762q2,0,2-3.3a4.713,4.713,0,0,0-.493-2.417A1.683,1.683,0,0,0,182.98,34.26Zm13.633-2.383a4.8,4.8,0,0,1,1.006.088l-.225,2.793a3.412,3.412,0,0,0-.879-.1,3.159,3.159,0,0,0-2.222.732,2.648,2.648,0,0,0-.8,2.051V43h-2.979V32.082h2.256l.439,1.836h.146a4.1,4.1,0,0,1,1.372-1.479A3.383,3.383,0,0,1,196.613,31.877Zm4.961,5.645a4.582,4.582,0,0,0,.532,2.451,1.9,1.9,0,0,0,1.733.83,1.873,1.873,0,0,0,1.714-.825,4.648,4.648,0,0,0,.522-2.456,4.51,4.51,0,0,0-.527-2.432,2.242,2.242,0,0,0-3.447,0A4.506,4.506,0,0,0,201.574,37.521Zm7.549,0a5.867,5.867,0,0,1-1.406,4.17,5.1,5.1,0,0,1-3.916,1.5,5.478,5.478,0,0,1-2.773-.688,4.581,4.581,0,0,1-1.846-1.978,6.645,6.645,0,0,1-.645-3.008,5.835,5.835,0,0,1,1.4-4.16,5.128,5.128,0,0,1,3.926-1.484,5.509,5.509,0,0,1,2.773.684,4.563,4.563,0,0,1,1.846,1.963A6.584,6.584,0,0,1,209.123,37.521Zm8.535-5.645a3.532,3.532,0,0,1,3.027,1.509,6.923,6.923,0,0,1,1.094,4.136,6.8,6.8,0,0,1-1.128,4.189,3.939,3.939,0,0,1-6.089.088h-.205l-.5,1.2h-2.275V27.8h2.979V31.34q0,.674-.117,2.158h.117A3.446,3.446,0,0,1,217.658,31.877ZM216.7,34.26a1.881,1.881,0,0,0-1.611.679,3.9,3.9,0,0,0-.527,2.241V37.5a4.6,4.6,0,0,0,.522,2.52,1.865,1.865,0,0,0,1.655.762,1.661,1.661,0,0,0,1.46-.845,4.572,4.572,0,0,0,.542-2.456,4.332,4.332,0,0,0-.547-2.417A1.715,1.715,0,0,0,216.7,34.26ZM227.219,43H224.24V27.8h2.979Zm7.646-9a1.889,1.889,0,0,0-1.484.6,2.78,2.78,0,0,0-.615,1.7h4.18a2.483,2.483,0,0,0-.576-1.7A1.951,1.951,0,0,0,234.865,34Zm.42,9.2a5.635,5.635,0,0,1-4.121-1.455,5.509,5.509,0,0,1-1.484-4.121,6.06,6.06,0,0,1,1.372-4.243,4.886,4.886,0,0,1,3.794-1.5,4.809,4.809,0,0,1,3.6,1.318,4.988,4.988,0,0,1,1.289,3.643v1.445H232.7a2.867,2.867,0,0,0,.752,1.982,2.646,2.646,0,0,0,1.973.713,8.189,8.189,0,0,0,1.865-.205,9.333,9.333,0,0,0,1.836-.654v2.3a6.994,6.994,0,0,1-1.67.581A10.529,10.529,0,0,1,235.285,43.2Zm16.65-.2h-2.979V36.623a3.212,3.212,0,0,0-.4-1.772,1.391,1.391,0,0,0-1.245-.591,1.8,1.8,0,0,0-1.66.84,5.509,5.509,0,0,0-.518,2.764V43H242.16V32.082h2.275l.4,1.4H245a3.026,3.026,0,0,1,1.27-1.177,4.122,4.122,0,0,1,1.9-.425,3.43,3.43,0,0,1,3.32,1.6h.264a2.95,2.95,0,0,1,1.294-1.182,4.315,4.315,0,0,1,1.929-.42,3.807,3.807,0,0,1,2.808.952,4.181,4.181,0,0,1,.952,3.052V43h-2.988V36.623a3.212,3.212,0,0,0-.4-1.772,1.391,1.391,0,0,0-1.245-.591,1.858,1.858,0,0,0-1.636.781,4.433,4.433,0,0,0-.542,2.48Zm16.8,0-.576-1.484h-.078a4.4,4.4,0,0,1-1.548,1.313,5,5,0,0,1-2.075.366,3.356,3.356,0,0,1-2.476-.9,3.45,3.45,0,0,1-.9-2.559,2.881,2.881,0,0,1,1.216-2.563,7.045,7.045,0,0,1,3.667-.913l1.895-.059v-.479a1.485,1.485,0,0,0-1.7-1.66,7.743,7.743,0,0,0-3.076.791l-.986-2.012a8.876,8.876,0,0,1,4.18-.986,5.206,5.206,0,0,1,3.369.957,3.537,3.537,0,0,1,1.172,2.91V43Zm-.879-5.059-1.152.039a3.69,3.69,0,0,0-1.934.469,1.472,1.472,0,0,0-.635,1.309q0,1.26,1.445,1.26a2.289,2.289,0,0,0,1.655-.6,2.092,2.092,0,0,0,.62-1.582Z" transform="translate(-564.897 3640.282)" fill="#fff"/>
    <path id="Trazado_5119" data-name="Trazado 5119" d="M716.731,3744.6v-31.955h-4V3744.6l-9.414-3.405c4.57,5.242,8.885,13.7,11.414,20.514,2.527-6.816,6.842-15.272,11.412-20.514Z" transform="translate(-1073 -6)" fill="#14160e"/>
    <path id="Trazado_5128" data-name="Trazado 5128" d="M12,0H428.5a12,12,0,0,1,12,12V50.609a12,12,0,0,1-12,12H12a12,12,0,0,1-12-12V12A12,12,0,0,1,12,0Z" transform="translate(-578.725 3903.344)" fill="#bf512c"/>
    <path id="Trazado_5129" data-name="Trazado 5129" d="M41.935,17.035a3.691,3.691,0,0,1-1.392,3.047A6.045,6.045,0,0,1,36.672,21.2a9.094,9.094,0,0,1-4.043-.859V17.523a16.661,16.661,0,0,0,2.446.908,7.239,7.239,0,0,0,1.831.264,2.6,2.6,0,0,0,1.528-.381,1.3,1.3,0,0,0,.532-1.133,1.251,1.251,0,0,0-.234-.747,2.623,2.623,0,0,0-.688-.63,17.707,17.707,0,0,0-1.851-.967,8.771,8.771,0,0,1-1.963-1.182,4.436,4.436,0,0,1-1.045-1.318,3.762,3.762,0,0,1-.391-1.758A3.69,3.69,0,0,1,34.079,7.6a5.336,5.336,0,0,1,3.55-1.084,8.383,8.383,0,0,1,2.124.264,14.6,14.6,0,0,1,2.114.742L40.89,9.877A14.288,14.288,0,0,0,39,9.223a6.082,6.082,0,0,0-1.47-.186,1.946,1.946,0,0,0-1.318.4,1.321,1.321,0,0,0-.459,1.045,1.293,1.293,0,0,0,.186.7,2.04,2.04,0,0,0,.591.576,18.268,18.268,0,0,0,1.919,1,7.635,7.635,0,0,1,2.744,1.919A3.745,3.745,0,0,1,41.935,17.035ZM48.81,12a1.889,1.889,0,0,0-1.484.6,2.78,2.78,0,0,0-.615,1.7h4.18a2.483,2.483,0,0,0-.576-1.7A1.951,1.951,0,0,0,48.81,12Zm.42,9.2a5.635,5.635,0,0,1-4.121-1.455,5.509,5.509,0,0,1-1.484-4.121A6.06,6.06,0,0,1,45,11.376a4.886,4.886,0,0,1,3.794-1.5,4.809,4.809,0,0,1,3.6,1.318,4.988,4.988,0,0,1,1.289,3.643v1.445H46.642a2.867,2.867,0,0,0,.752,1.982,2.646,2.646,0,0,0,1.973.713,8.189,8.189,0,0,0,1.865-.205,9.333,9.333,0,0,0,1.836-.654v2.3A6.994,6.994,0,0,1,51.4,21,10.529,10.529,0,0,1,49.23,21.2Zm9.854-.2H56.105V5.8h2.979Zm7.646-9a1.889,1.889,0,0,0-1.484.6,2.78,2.78,0,0,0-.615,1.7h4.18a2.483,2.483,0,0,0-.576-1.7A1.951,1.951,0,0,0,66.73,12Zm.42,9.2a5.635,5.635,0,0,1-4.121-1.455,5.509,5.509,0,0,1-1.484-4.121,6.06,6.06,0,0,1,1.372-4.243,4.886,4.886,0,0,1,3.794-1.5,4.809,4.809,0,0,1,3.6,1.318A4.988,4.988,0,0,1,71.6,14.838v1.445H64.562a2.867,2.867,0,0,0,.752,1.982,2.646,2.646,0,0,0,1.973.713,8.189,8.189,0,0,0,1.865-.205,9.333,9.333,0,0,0,1.836-.654v2.3a6.994,6.994,0,0,1-1.67.581A10.529,10.529,0,0,1,67.15,21.2Zm11.309,0q-5.1,0-5.1-5.6a5.969,5.969,0,0,1,1.387-4.253,5.2,5.2,0,0,1,3.975-1.47,7.577,7.577,0,0,1,3.4.742l-.879,2.3q-.7-.283-1.309-.464a4.216,4.216,0,0,0-1.211-.181q-2.324,0-2.324,3.3,0,3.2,2.324,3.2a5.3,5.3,0,0,0,1.592-.229,5.747,5.747,0,0,0,1.465-.718v2.549a4.8,4.8,0,0,1-1.46.635A8.21,8.21,0,0,1,78.459,21.2Zm10.283,0q-5.1,0-5.1-5.6a5.969,5.969,0,0,1,1.387-4.253,5.2,5.2,0,0,1,3.975-1.47,7.577,7.577,0,0,1,3.4.742l-.879,2.3q-.7-.283-1.309-.464a4.216,4.216,0,0,0-1.211-.181q-2.324,0-2.324,3.3,0,3.2,2.324,3.2a5.3,5.3,0,0,0,1.592-.229,5.747,5.747,0,0,0,1.465-.718v2.549a4.8,4.8,0,0,1-1.46.635A8.21,8.21,0,0,1,88.742,21.2ZM94.465,7.26q0-1.455,1.621-1.455T97.707,7.26A1.419,1.419,0,0,1,97.3,8.339a1.7,1.7,0,0,1-1.216.386Q94.465,8.725,94.465,7.26ZM97.57,21H94.592V10.082H97.57Zm5.5-5.479a4.582,4.582,0,0,0,.532,2.451,1.9,1.9,0,0,0,1.733.83,1.873,1.873,0,0,0,1.714-.825,4.648,4.648,0,0,0,.522-2.456,4.51,4.51,0,0,0-.527-2.432,2.242,2.242,0,0,0-3.447,0A4.506,4.506,0,0,0,103.068,15.521Zm7.549,0a5.867,5.867,0,0,1-1.406,4.17,5.1,5.1,0,0,1-3.916,1.5,5.478,5.478,0,0,1-2.773-.688,4.581,4.581,0,0,1-1.846-1.978,6.645,6.645,0,0,1-.645-3.008,5.835,5.835,0,0,1,1.4-4.16,5.128,5.128,0,0,1,3.926-1.484,5.509,5.509,0,0,1,2.773.684,4.563,4.563,0,0,1,1.846,1.963A6.584,6.584,0,0,1,110.617,15.521ZM123.156,21h-2.979V14.623a3.063,3.063,0,0,0-.42-1.772,1.528,1.528,0,0,0-1.338-.591,2.011,2.011,0,0,0-1.807.835,5.178,5.178,0,0,0-.557,2.769V21h-2.979V10.082h2.275l.4,1.4h.166a3.148,3.148,0,0,1,1.372-1.2,4.672,4.672,0,0,1,1.987-.405,3.818,3.818,0,0,1,2.891,1.03,4.134,4.134,0,0,1,.986,2.974Zm10,0-.576-1.484H132.5a4.4,4.4,0,0,1-1.548,1.313,5,5,0,0,1-2.075.366,3.356,3.356,0,0,1-2.476-.9,3.45,3.45,0,0,1-.9-2.559,2.881,2.881,0,0,1,1.216-2.563,7.045,7.045,0,0,1,3.667-.913l1.895-.059v-.479a1.485,1.485,0,0,0-1.7-1.66,7.743,7.743,0,0,0-3.076.791l-.986-2.012a8.876,8.876,0,0,1,4.18-.986,5.206,5.206,0,0,1,3.369.957,3.537,3.537,0,0,1,1.172,2.91V21Zm-.879-5.059-1.152.039a3.69,3.69,0,0,0-1.934.469,1.472,1.472,0,0,0-.635,1.309q0,1.26,1.445,1.26a2.289,2.289,0,0,0,1.655-.6,2.092,2.092,0,0,0,.62-1.582ZM144.4,9.877a4.8,4.8,0,0,1,1.006.088l-.225,2.793a3.412,3.412,0,0,0-.879-.1,3.159,3.159,0,0,0-2.222.732,2.648,2.648,0,0,0-.8,2.051V21H138.3V10.082h2.256L141,11.918h.146a4.1,4.1,0,0,1,1.372-1.479A3.383,3.383,0,0,1,144.4,9.877ZM160.754,21h-2.979V5.8h2.979Zm10.059,0-.576-1.484h-.078a4.4,4.4,0,0,1-1.548,1.313,5,5,0,0,1-2.075.366,3.356,3.356,0,0,1-2.476-.9,3.45,3.45,0,0,1-.9-2.559,2.881,2.881,0,0,1,1.216-2.563,7.045,7.045,0,0,1,3.667-.913l1.895-.059v-.479a1.485,1.485,0,0,0-1.7-1.66,7.743,7.743,0,0,0-3.076.791l-.986-2.012a8.876,8.876,0,0,1,4.18-.986,5.206,5.206,0,0,1,3.369.957,3.537,3.537,0,0,1,1.172,2.91V21Zm-.879-5.059-1.152.039a3.69,3.69,0,0,0-1.934.469,1.472,1.472,0,0,0-.635,1.309q0,1.26,1.445,1.26a2.289,2.289,0,0,0,1.655-.6,2.092,2.092,0,0,0,.62-1.582Zm13.643,1.816a3.006,3.006,0,0,1-1.167,2.559,5.766,5.766,0,0,1-3.491.879,10.965,10.965,0,0,1-2.031-.161,7.683,7.683,0,0,1-1.572-.474V18.1a10.383,10.383,0,0,0,1.87.654,7.572,7.572,0,0,0,1.831.264q1.621,0,1.621-.937a.782.782,0,0,0-.215-.571,3.115,3.115,0,0,0-.742-.5q-.527-.278-1.406-.649a8.834,8.834,0,0,1-1.851-.977,2.749,2.749,0,0,1-.859-1.03,3.4,3.4,0,0,1-.269-1.431,2.594,2.594,0,0,1,1.128-2.251,5.494,5.494,0,0,1,3.2-.8,9.078,9.078,0,0,1,3.838.859l-.9,2.148q-.82-.352-1.533-.576a4.815,4.815,0,0,0-1.455-.225q-1.318,0-1.318.713a.838.838,0,0,0,.425.693,11.552,11.552,0,0,0,1.86.869,8.643,8.643,0,0,1,1.875.967,2.859,2.859,0,0,1,.879,1.035A3.181,3.181,0,0,1,183.576,17.758ZM198.029,21l-.576-1.484h-.078a4.4,4.4,0,0,1-1.548,1.313,5,5,0,0,1-2.075.366,3.356,3.356,0,0,1-2.476-.9,3.45,3.45,0,0,1-.9-2.559,2.881,2.881,0,0,1,1.216-2.563,7.045,7.045,0,0,1,3.667-.913l1.895-.059v-.479a1.485,1.485,0,0,0-1.7-1.66,7.743,7.743,0,0,0-3.076.791l-.986-2.012a8.876,8.876,0,0,1,4.18-.986,5.206,5.206,0,0,1,3.369.957,3.537,3.537,0,0,1,1.172,2.91V21Zm-.879-5.059L196,15.98a3.69,3.69,0,0,0-1.934.469,1.472,1.472,0,0,0-.635,1.309q0,1.26,1.445,1.26a2.289,2.289,0,0,0,1.655-.6,2.092,2.092,0,0,0,.62-1.582ZM207.609,21.2q-5.1,0-5.1-5.6a5.969,5.969,0,0,1,1.387-4.253,5.2,5.2,0,0,1,3.975-1.47,7.577,7.577,0,0,1,3.4.742l-.879,2.3q-.7-.283-1.309-.464a4.216,4.216,0,0,0-1.211-.181q-2.324,0-2.324,3.3,0,3.2,2.324,3.2a5.3,5.3,0,0,0,1.592-.229,5.747,5.747,0,0,0,1.465-.718v2.549a4.8,4.8,0,0,1-1.46.635A8.21,8.21,0,0,1,207.609,21.2Zm10.283,0q-5.1,0-5.1-5.6a5.969,5.969,0,0,1,1.387-4.253,5.2,5.2,0,0,1,3.975-1.47,7.577,7.577,0,0,1,3.4.742l-.879,2.3q-.7-.283-1.309-.464a4.216,4.216,0,0,0-1.211-.181q-2.324,0-2.324,3.3,0,3.2,2.324,3.2a5.3,5.3,0,0,0,1.592-.229,5.747,5.747,0,0,0,1.465-.718v2.549a4.8,4.8,0,0,1-1.46.635A8.21,8.21,0,0,1,217.892,21.2ZM223.615,7.26q0-1.455,1.621-1.455t1.621,1.455a1.419,1.419,0,0,1-.405,1.079,1.7,1.7,0,0,1-1.216.386Q223.615,8.725,223.615,7.26ZM226.72,21h-2.979V10.082h2.979Zm5.5-5.479a4.582,4.582,0,0,0,.532,2.451,1.9,1.9,0,0,0,1.733.83,1.873,1.873,0,0,0,1.714-.825,4.648,4.648,0,0,0,.522-2.456,4.51,4.51,0,0,0-.527-2.432,2.242,2.242,0,0,0-3.447,0A4.506,4.506,0,0,0,232.219,15.521Zm7.549,0a5.867,5.867,0,0,1-1.406,4.17,5.1,5.1,0,0,1-3.916,1.5,5.478,5.478,0,0,1-2.773-.688,4.581,4.581,0,0,1-1.846-1.978,6.645,6.645,0,0,1-.645-3.008,5.835,5.835,0,0,1,1.4-4.16A5.128,5.128,0,0,1,234.5,9.877a5.509,5.509,0,0,1,2.773.684,4.563,4.563,0,0,1,1.846,1.963A6.584,6.584,0,0,1,239.767,15.521ZM252.306,21h-2.979V14.623a3.063,3.063,0,0,0-.42-1.772,1.528,1.528,0,0,0-1.338-.591,2.011,2.011,0,0,0-1.807.835,5.178,5.178,0,0,0-.557,2.769V21h-2.979V10.082H244.5l.4,1.4h.166a3.148,3.148,0,0,1,1.372-1.2,4.672,4.672,0,0,1,1.987-.405,3.818,3.818,0,0,1,2.891,1.03,4.134,4.134,0,0,1,.986,2.974Zm7.588-9a1.889,1.889,0,0,0-1.484.6,2.78,2.78,0,0,0-.615,1.7h4.18a2.483,2.483,0,0,0-.576-1.7A1.951,1.951,0,0,0,259.894,12Zm.42,9.2a5.635,5.635,0,0,1-4.121-1.455,5.509,5.509,0,0,1-1.484-4.121,6.06,6.06,0,0,1,1.372-4.243,4.886,4.886,0,0,1,3.794-1.5,4.809,4.809,0,0,1,3.6,1.318,4.988,4.988,0,0,1,1.289,3.643v1.445h-7.041a2.867,2.867,0,0,0,.752,1.982,2.646,2.646,0,0,0,1.973.713,8.189,8.189,0,0,0,1.865-.205,9.333,9.333,0,0,0,1.836-.654v2.3a6.994,6.994,0,0,1-1.67.581A10.529,10.529,0,0,1,260.314,21.2Zm14.492-3.437a3.006,3.006,0,0,1-1.167,2.559,5.766,5.766,0,0,1-3.491.879,10.965,10.965,0,0,1-2.031-.161,7.683,7.683,0,0,1-1.572-.474V18.1a10.383,10.383,0,0,0,1.87.654,7.572,7.572,0,0,0,1.831.264q1.621,0,1.621-.937a.783.783,0,0,0-.215-.571,3.115,3.115,0,0,0-.742-.5q-.527-.278-1.406-.649a8.834,8.834,0,0,1-1.851-.977,2.749,2.749,0,0,1-.859-1.03,3.4,3.4,0,0,1-.269-1.431,2.594,2.594,0,0,1,1.128-2.251,5.494,5.494,0,0,1,3.2-.8,9.078,9.078,0,0,1,3.838.859l-.9,2.148q-.82-.352-1.533-.576a4.815,4.815,0,0,0-1.455-.225q-1.318,0-1.318.713a.838.838,0,0,0,.425.693,11.552,11.552,0,0,0,1.86.869,8.642,8.642,0,0,1,1.875.967,2.86,2.86,0,0,1,.879,1.035A3.181,3.181,0,0,1,274.806,17.758ZM285.783,21.2a3.546,3.546,0,0,1-3.022-1.494,6.869,6.869,0,0,1-1.1-4.141,6.876,6.876,0,0,1,1.118-4.185,3.632,3.632,0,0,1,3.081-1.5,3.562,3.562,0,0,1,3.145,1.6h.1a12.176,12.176,0,0,1-.225-2.178V5.8h2.988V21h-2.285l-.576-1.416h-.127A3.408,3.408,0,0,1,285.783,21.2Zm1.045-2.373a2.018,2.018,0,0,0,1.675-.664,3.863,3.863,0,0,0,.581-2.256V15.58a4.464,4.464,0,0,0-.542-2.52,2.013,2.013,0,0,0-1.763-.762,1.748,1.748,0,0,0-1.548.845,4.507,4.507,0,0,0-.552,2.456,4.271,4.271,0,0,0,.557,2.417A1.819,1.819,0,0,0,286.828,18.822ZM299.5,12a1.889,1.889,0,0,0-1.484.6,2.78,2.78,0,0,0-.615,1.7h4.18a2.483,2.483,0,0,0-.576-1.7A1.951,1.951,0,0,0,299.5,12Zm.42,9.2A5.635,5.635,0,0,1,295.8,19.74a5.509,5.509,0,0,1-1.484-4.121,6.06,6.06,0,0,1,1.372-4.243,4.886,4.886,0,0,1,3.794-1.5,4.809,4.809,0,0,1,3.6,1.318,4.988,4.988,0,0,1,1.289,3.643v1.445h-7.041a2.867,2.867,0,0,0,.752,1.982,2.646,2.646,0,0,0,1.973.713,8.189,8.189,0,0,0,1.865-.205,9.333,9.333,0,0,0,1.836-.654v2.3a6.994,6.994,0,0,1-1.67.581A10.529,10.529,0,0,1,299.924,21.2Zm21.846-.2h-2.979V14.623a3.212,3.212,0,0,0-.4-1.772,1.391,1.391,0,0,0-1.245-.591,1.8,1.8,0,0,0-1.66.84,5.509,5.509,0,0,0-.518,2.764V21h-2.979V10.082h2.275l.4,1.4h.166a3.026,3.026,0,0,1,1.27-1.177,4.122,4.122,0,0,1,1.9-.425,3.43,3.43,0,0,1,3.32,1.6h.264a2.95,2.95,0,0,1,1.294-1.182,4.315,4.315,0,0,1,1.929-.42,3.807,3.807,0,0,1,2.808.952,4.181,4.181,0,0,1,.952,3.052V21h-2.988V14.623a3.212,3.212,0,0,0-.4-1.772,1.391,1.391,0,0,0-1.245-.591,1.858,1.858,0,0,0-1.636.781,4.433,4.433,0,0,0-.542,2.48Zm14.385-9a1.889,1.889,0,0,0-1.484.6,2.78,2.78,0,0,0-.615,1.7h4.18a2.483,2.483,0,0,0-.576-1.7A1.951,1.951,0,0,0,336.154,12Zm.42,9.2a5.635,5.635,0,0,1-4.121-1.455,5.509,5.509,0,0,1-1.484-4.121,6.06,6.06,0,0,1,1.372-4.243,4.886,4.886,0,0,1,3.794-1.5,4.809,4.809,0,0,1,3.6,1.318,4.988,4.988,0,0,1,1.289,3.643v1.445h-7.041a2.867,2.867,0,0,0,.752,1.982,2.646,2.646,0,0,0,1.973.713,8.189,8.189,0,0,0,1.865-.205,9.333,9.333,0,0,0,1.836-.654v2.3a6.994,6.994,0,0,1-1.67.581A10.529,10.529,0,0,1,336.574,21.2Zm6,4.609a6.934,6.934,0,0,1-1.963-.244V23.217a5.308,5.308,0,0,0,1.4.186,1.344,1.344,0,0,0,1.1-.42,1.91,1.91,0,0,0,.347-1.24V10.082h2.979v12.1a3.494,3.494,0,0,1-1.006,2.681A4.013,4.013,0,0,1,342.57,25.8Zm.752-18.545q0-1.455,1.621-1.455t1.621,1.455a1.419,1.419,0,0,1-.405,1.079,1.7,1.7,0,0,1-1.216.386Q343.322,8.725,343.322,7.26Zm8.6,8.262a4.582,4.582,0,0,0,.532,2.451,1.9,1.9,0,0,0,1.733.83,1.873,1.873,0,0,0,1.714-.825,4.648,4.648,0,0,0,.522-2.456,4.51,4.51,0,0,0-.527-2.432,2.242,2.242,0,0,0-3.447,0A4.506,4.506,0,0,0,351.926,15.521Zm7.549,0a5.867,5.867,0,0,1-1.406,4.17,5.1,5.1,0,0,1-3.916,1.5,5.478,5.478,0,0,1-2.773-.688,4.581,4.581,0,0,1-1.846-1.978,6.645,6.645,0,0,1-.645-3.008,5.835,5.835,0,0,1,1.4-4.16,5.128,5.128,0,0,1,3.926-1.484,5.509,5.509,0,0,1,2.773.684,4.563,4.563,0,0,1,1.846,1.963A6.584,6.584,0,0,1,359.474,15.521Zm8.555-5.645a4.8,4.8,0,0,1,1.006.088l-.225,2.793a3.412,3.412,0,0,0-.879-.1,3.159,3.159,0,0,0-2.222.732,2.648,2.648,0,0,0-.8,2.051V21h-2.979V10.082h2.256l.439,1.836h.146a4.1,4.1,0,0,1,1.372-1.479A3.383,3.383,0,0,1,368.029,9.877ZM377.551,21l-.576-1.484H376.9a4.4,4.4,0,0,1-1.548,1.313,5,5,0,0,1-2.075.366,3.356,3.356,0,0,1-2.476-.9,3.45,3.45,0,0,1-.9-2.559,2.881,2.881,0,0,1,1.216-2.563,7.045,7.045,0,0,1,3.667-.913l1.895-.059v-.479a1.485,1.485,0,0,0-1.7-1.66,7.743,7.743,0,0,0-3.076.791l-.986-2.012a8.876,8.876,0,0,1,4.18-.986,5.206,5.206,0,0,1,3.369.957,3.537,3.537,0,0,1,1.172,2.91V21Zm-.879-5.059-1.152.039a3.69,3.69,0,0,0-1.934.469,1.472,1.472,0,0,0-.635,1.309q0,1.26,1.445,1.26a2.289,2.289,0,0,0,1.655-.6,2.092,2.092,0,0,0,.62-1.582Z" transform="translate(-564.897 3919.938)" fill="#fff"/>
    <path id="Trazado_5120" data-name="Trazado 5120" d="M716.731,4014.378v-31.954h-4v31.954l-9.414-3.405c4.57,5.242,8.885,13.7,11.414,20.514,2.527-6.816,6.842-15.272,11.412-20.514Z" transform="translate(-1073 -6)" fill="#14160e"/>
    <path id="Trazado_5132" data-name="Trazado 5132" d="M12,0H428.5a12,12,0,0,1,12,12V50.609a12,12,0,0,1-12,12H12a12,12,0,0,1-12-12V12A12,12,0,0,1,12,0Z" transform="translate(-578.725 4173.845)" fill="#efca8f"/>
    <path id="Trazado_5133" data-name="Trazado 5133" d="M62.228,21V6.723h3.027V18.5h5.791V21Zm14.043,0H73.293V5.8h2.979Zm7.646-9a1.889,1.889,0,0,0-1.484.6,2.78,2.78,0,0,0-.615,1.7H86a2.483,2.483,0,0,0-.576-1.7A1.951,1.951,0,0,0,83.918,12Zm.42,9.2a5.635,5.635,0,0,1-4.121-1.455,5.509,5.509,0,0,1-1.484-4.121A6.06,6.06,0,0,1,80.1,11.376a4.886,4.886,0,0,1,3.794-1.5A4.809,4.809,0,0,1,87.5,11.2a4.988,4.988,0,0,1,1.289,3.643v1.445H81.75a2.867,2.867,0,0,0,.752,1.982,2.646,2.646,0,0,0,1.973.713,8.189,8.189,0,0,0,1.865-.205,9.333,9.333,0,0,0,1.836-.654v2.3a6.994,6.994,0,0,1-1.67.581A10.529,10.529,0,0,1,84.338,21.2ZM93.41,21,89.25,10.082h3.115L94.474,16.3a11.1,11.1,0,0,1,.439,2.236h.059a9.725,9.725,0,0,1,.439-2.236l2.1-6.221h3.115L96.467,21Zm15.713,0-.576-1.484h-.078a4.4,4.4,0,0,1-1.548,1.313,5,5,0,0,1-2.075.366,3.356,3.356,0,0,1-2.476-.9,3.45,3.45,0,0,1-.9-2.559,2.881,2.881,0,0,1,1.216-2.563,7.045,7.045,0,0,1,3.667-.913l1.895-.059v-.479a1.485,1.485,0,0,0-1.7-1.66,7.743,7.743,0,0,0-3.076.791l-.986-2.012a8.876,8.876,0,0,1,4.18-.986,5.206,5.206,0,0,1,3.369.957,3.537,3.537,0,0,1,1.172,2.91V21Zm-.879-5.059-1.152.039a3.69,3.69,0,0,0-1.934.469,1.472,1.472,0,0,0-.635,1.309q0,1.26,1.445,1.26a2.289,2.289,0,0,0,1.655-.6,2.092,2.092,0,0,0,.62-1.582Zm12.119-6.064a4.8,4.8,0,0,1,1.006.088l-.225,2.793a3.412,3.412,0,0,0-.879-.1,3.159,3.159,0,0,0-2.222.732,2.648,2.648,0,0,0-.8,2.051V21h-2.979V10.082h2.256l.439,1.836h.146a4.1,4.1,0,0,1,1.372-1.479A3.383,3.383,0,0,1,120.363,9.877ZM135.48,21l-.576-1.484h-.078a4.4,4.4,0,0,1-1.548,1.313,5,5,0,0,1-2.075.366,3.356,3.356,0,0,1-2.476-.9,3.45,3.45,0,0,1-.9-2.559,2.881,2.881,0,0,1,1.216-2.563,7.045,7.045,0,0,1,3.667-.913L134.6,14.2v-.479a1.485,1.485,0,0,0-1.7-1.66,7.743,7.743,0,0,0-3.076.791l-.986-2.012a8.876,8.876,0,0,1,4.18-.986,5.206,5.206,0,0,1,3.369.957,3.537,3.537,0,0,1,1.172,2.91V21Zm-.879-5.059-1.152.039a3.69,3.69,0,0,0-1.934.469,1.472,1.472,0,0,0-.635,1.309q0,1.26,1.445,1.26a2.289,2.289,0,0,0,1.655-.6,2.092,2.092,0,0,0,.62-1.582ZM150.256,21.2q-5.1,0-5.1-5.6a5.969,5.969,0,0,1,1.387-4.253,5.2,5.2,0,0,1,3.975-1.47,7.577,7.577,0,0,1,3.4.742l-.879,2.3q-.7-.283-1.309-.464a4.216,4.216,0,0,0-1.211-.181q-2.324,0-2.324,3.3,0,3.2,2.324,3.2a5.3,5.3,0,0,0,1.592-.229,5.747,5.747,0,0,0,1.465-.718v2.549a4.8,4.8,0,0,1-1.46.635A8.21,8.21,0,0,1,150.256,21.2Zm12.783-.2-.576-1.484h-.078a4.4,4.4,0,0,1-1.548,1.313,5,5,0,0,1-2.075.366,3.356,3.356,0,0,1-2.476-.9,3.45,3.45,0,0,1-.9-2.559,2.881,2.881,0,0,1,1.216-2.563,7.045,7.045,0,0,1,3.667-.913l1.895-.059v-.479a1.485,1.485,0,0,0-1.7-1.66,7.743,7.743,0,0,0-3.076.791l-.986-2.012a8.876,8.876,0,0,1,4.18-.986,5.206,5.206,0,0,1,3.369.957,3.537,3.537,0,0,1,1.172,2.91V21Zm-.879-5.059-1.152.039a3.69,3.69,0,0,0-1.934.469,1.472,1.472,0,0,0-.635,1.309q0,1.26,1.445,1.26a2.289,2.289,0,0,0,1.655-.6,2.092,2.092,0,0,0,.62-1.582Zm12.1-6.064a3.532,3.532,0,0,1,3.027,1.509,6.923,6.923,0,0,1,1.094,4.136,6.8,6.8,0,0,1-1.128,4.189,3.939,3.939,0,0,1-6.089.088h-.205l-.5,1.2h-2.275V5.8h2.979V9.34q0,.674-.117,2.158h.117A3.446,3.446,0,0,1,174.26,9.877ZM173.3,12.26a1.881,1.881,0,0,0-1.611.679,3.9,3.9,0,0,0-.527,2.241V15.5a4.6,4.6,0,0,0,.522,2.52,1.865,1.865,0,0,0,1.655.762,1.661,1.661,0,0,0,1.46-.845,4.572,4.572,0,0,0,.542-2.456,4.332,4.332,0,0,0-.547-2.417A1.715,1.715,0,0,0,173.3,12.26Zm9.912,3.262a4.582,4.582,0,0,0,.532,2.451,1.9,1.9,0,0,0,1.733.83,1.873,1.873,0,0,0,1.714-.825,4.648,4.648,0,0,0,.522-2.456,4.51,4.51,0,0,0-.527-2.432,2.242,2.242,0,0,0-3.447,0A4.506,4.506,0,0,0,183.215,15.521Zm7.549,0a5.867,5.867,0,0,1-1.406,4.17,5.1,5.1,0,0,1-3.916,1.5,5.478,5.478,0,0,1-2.773-.688,4.581,4.581,0,0,1-1.846-1.978,6.645,6.645,0,0,1-.645-3.008,5.835,5.835,0,0,1,1.4-4.16A5.128,5.128,0,0,1,185.5,9.877a5.509,5.509,0,0,1,2.773.684,4.563,4.563,0,0,1,1.846,1.963A6.584,6.584,0,0,1,190.763,15.521ZM206.154,21l-.4-1.4H205.6a3.143,3.143,0,0,1-1.357,1.177,4.634,4.634,0,0,1-2,.415,3.812,3.812,0,0,1-2.9-1.03,4.145,4.145,0,0,1-.977-2.964V10.082h2.979v6.377a3.063,3.063,0,0,0,.42,1.772,1.528,1.528,0,0,0,1.338.591,2.011,2.011,0,0,0,1.807-.835,5.178,5.178,0,0,0,.557-2.769V10.082h2.979V21Zm15.488,0h-2.979V14.623a3.063,3.063,0,0,0-.42-1.772,1.528,1.528,0,0,0-1.338-.591,2.011,2.011,0,0,0-1.807.835,5.178,5.178,0,0,0-.557,2.769V21h-2.979V10.082h2.275l.4,1.4h.166a3.148,3.148,0,0,1,1.372-1.2,4.672,4.672,0,0,1,1.987-.405,3.818,3.818,0,0,1,2.891,1.03,4.134,4.134,0,0,1,.986,2.974Zm15.879-3.242a3.006,3.006,0,0,1-1.167,2.559,5.766,5.766,0,0,1-3.491.879,10.965,10.965,0,0,1-2.031-.161,7.683,7.683,0,0,1-1.572-.474V18.1a10.383,10.383,0,0,0,1.87.654,7.572,7.572,0,0,0,1.831.264q1.621,0,1.621-.937a.782.782,0,0,0-.215-.571,3.115,3.115,0,0,0-.742-.5q-.527-.278-1.406-.649a8.834,8.834,0,0,1-1.851-.977,2.749,2.749,0,0,1-.859-1.03,3.4,3.4,0,0,1-.269-1.431,2.594,2.594,0,0,1,1.128-2.251,5.494,5.494,0,0,1,3.2-.8,9.078,9.078,0,0,1,3.838.859l-.9,2.148q-.82-.352-1.533-.576a4.815,4.815,0,0,0-1.455-.225q-1.318,0-1.318.713a.838.838,0,0,0,.425.693,11.552,11.552,0,0,0,1.86.869,8.643,8.643,0,0,1,1.875.967,2.859,2.859,0,0,1,.879,1.035A3.181,3.181,0,0,1,237.521,17.758ZM244.367,12a1.889,1.889,0,0,0-1.484.6,2.78,2.78,0,0,0-.615,1.7h4.18a2.483,2.483,0,0,0-.576-1.7A1.951,1.951,0,0,0,244.367,12Zm.42,9.2a5.635,5.635,0,0,1-4.121-1.455,5.509,5.509,0,0,1-1.484-4.121,6.06,6.06,0,0,1,1.372-4.243,4.886,4.886,0,0,1,3.794-1.5,4.809,4.809,0,0,1,3.6,1.318,4.988,4.988,0,0,1,1.289,3.643v1.445H242.2a2.867,2.867,0,0,0,.752,1.982,2.646,2.646,0,0,0,1.973.713,8.189,8.189,0,0,0,1.865-.205,9.333,9.333,0,0,0,1.836-.654v2.3a6.994,6.994,0,0,1-1.67.581A10.529,10.529,0,0,1,244.787,21.2Zm16.377-11.113V11.6l-1.709.439a2.979,2.979,0,0,1,.469,1.641,3.312,3.312,0,0,1-1.226,2.739,5.308,5.308,0,0,1-3.4.981l-.537-.029-.439-.049a.99.99,0,0,0-.459.781q0,.645,1.641.645h1.855a4.233,4.233,0,0,1,2.739.771,2.758,2.758,0,0,1,.942,2.266,3.36,3.36,0,0,1-1.6,2.969,8.315,8.315,0,0,1-4.585,1.055,6.348,6.348,0,0,1-3.491-.8,2.527,2.527,0,0,1-1.206-2.231,2.336,2.336,0,0,1,.615-1.65,3.494,3.494,0,0,1,1.807-.947,1.993,1.993,0,0,1-.8-.64,1.572,1.572,0,0,1,.02-1.982,4.177,4.177,0,0,1,1.045-.815,2.93,2.93,0,0,1-1.362-1.191,3.626,3.626,0,0,1-.5-1.934,3.41,3.41,0,0,1,1.162-2.764,5.025,5.025,0,0,1,3.32-.977,8.5,8.5,0,0,1,1.089.083q.63.083.806.122Zm-8.428,12.461a1.079,1.079,0,0,0,.591.967,3.251,3.251,0,0,0,1.655.352,5.863,5.863,0,0,0,2.51-.439,1.339,1.339,0,0,0,.908-1.2.85.85,0,0,0-.537-.85,4.4,4.4,0,0,0-1.66-.234H254.66a2.337,2.337,0,0,0-1.372.386A1.19,1.19,0,0,0,252.736,22.543Zm1.084-8.887a2.223,2.223,0,0,0,.405,1.406,1.472,1.472,0,0,0,1.235.518,1.442,1.442,0,0,0,1.23-.518,2.283,2.283,0,0,0,.391-1.406q0-1.973-1.621-1.973Q253.82,11.684,253.82,13.656ZM270.7,21l-.4-1.4h-.156a3.142,3.142,0,0,1-1.357,1.177,4.634,4.634,0,0,1-2,.415,3.812,3.812,0,0,1-2.9-1.03A4.145,4.145,0,0,1,262.9,17.2V10.082h2.979v6.377a3.063,3.063,0,0,0,.42,1.772,1.528,1.528,0,0,0,1.338.591,2.011,2.011,0,0,0,1.807-.835A5.178,5.178,0,0,0,270,15.219V10.082h2.979V21Zm5.283-13.74q0-1.455,1.621-1.455T279.22,7.26a1.419,1.419,0,0,1-.405,1.079,1.7,1.7,0,0,1-1.216.386Q275.978,8.725,275.978,7.26ZM279.084,21h-2.979V10.082h2.979Zm12.9,0h-2.979V14.623a3.212,3.212,0,0,0-.4-1.772,1.391,1.391,0,0,0-1.245-.591,1.8,1.8,0,0,0-1.66.84,5.509,5.509,0,0,0-.518,2.764V21h-2.979V10.082h2.275l.4,1.4h.166a3.026,3.026,0,0,1,1.27-1.177,4.122,4.122,0,0,1,1.9-.425,3.43,3.43,0,0,1,3.32,1.6h.264A2.95,2.95,0,0,1,293.1,10.3a4.315,4.315,0,0,1,1.929-.42,3.807,3.807,0,0,1,2.808.952,4.181,4.181,0,0,1,.952,3.052V21H295.8V14.623a3.212,3.212,0,0,0-.4-1.772,1.391,1.391,0,0,0-1.245-.591,1.858,1.858,0,0,0-1.636.781,4.433,4.433,0,0,0-.542,2.48ZM301.72,7.26q0-1.455,1.621-1.455t1.621,1.455a1.419,1.419,0,0,1-.405,1.079,1.7,1.7,0,0,1-1.216.386Q301.721,8.725,301.72,7.26ZM304.826,21h-2.979V10.082h2.979Zm7.646-9a1.889,1.889,0,0,0-1.484.6,2.78,2.78,0,0,0-.615,1.7h4.18a2.483,2.483,0,0,0-.576-1.7A1.951,1.951,0,0,0,312.472,12Zm.42,9.2a5.635,5.635,0,0,1-4.121-1.455,5.509,5.509,0,0,1-1.484-4.121,6.06,6.06,0,0,1,1.372-4.243,4.886,4.886,0,0,1,3.794-1.5,4.809,4.809,0,0,1,3.6,1.318,4.988,4.988,0,0,1,1.289,3.643v1.445H310.3a2.867,2.867,0,0,0,.752,1.982,2.646,2.646,0,0,0,1.973.713,8.189,8.189,0,0,0,1.865-.205,9.333,9.333,0,0,0,1.836-.654v2.3a6.994,6.994,0,0,1-1.67.581A10.529,10.529,0,0,1,312.892,21.2Zm16.953-.2h-2.979V14.623a3.063,3.063,0,0,0-.42-1.772,1.528,1.528,0,0,0-1.338-.591,2.011,2.011,0,0,0-1.807.835,5.178,5.178,0,0,0-.557,2.769V21h-2.979V10.082h2.275l.4,1.4h.166a3.148,3.148,0,0,1,1.372-1.2,4.672,4.672,0,0,1,1.987-.405,3.818,3.818,0,0,1,2.891,1.03,4.134,4.134,0,0,1,.986,2.974Zm7.666-2.178a6.456,6.456,0,0,0,1.875-.342V20.7a6.685,6.685,0,0,1-2.734.5,3.347,3.347,0,0,1-2.6-.9,3.932,3.932,0,0,1-.815-2.71V12.318h-1.426v-1.26l1.641-1,.859-2.3h1.9v2.324h3.057v2.236h-3.057v5.264a1.163,1.163,0,0,0,.356.938A1.406,1.406,0,0,0,337.512,18.822Zm6.455-3.3a4.582,4.582,0,0,0,.532,2.451,1.9,1.9,0,0,0,1.733.83,1.873,1.873,0,0,0,1.714-.825,4.648,4.648,0,0,0,.522-2.456,4.51,4.51,0,0,0-.527-2.432,2.242,2.242,0,0,0-3.447,0A4.506,4.506,0,0,0,343.967,15.521Zm7.549,0a5.867,5.867,0,0,1-1.406,4.17,5.1,5.1,0,0,1-3.916,1.5,5.478,5.478,0,0,1-2.773-.688,4.581,4.581,0,0,1-1.846-1.978,6.645,6.645,0,0,1-.645-3.008,5.835,5.835,0,0,1,1.4-4.16,5.128,5.128,0,0,1,3.926-1.484,5.509,5.509,0,0,1,2.773.684,4.563,4.563,0,0,1,1.846,1.963A6.584,6.584,0,0,1,351.515,15.521ZM144.079,32.082h3.262l2.061,6.143a8.523,8.523,0,0,1,.361,1.895h.059a8.372,8.372,0,0,1,.42-1.895l2.021-6.143h3.193L150.837,44.4a5.332,5.332,0,0,1-1.812,2.559,4.572,4.572,0,0,1-2.749.85,6.913,6.913,0,0,1-1.514-.166V45.275a5.092,5.092,0,0,0,1.172.127,2.116,2.116,0,0,0,1.382-.483,3.134,3.134,0,0,0,.923-1.46l.176-.537ZM166.735,34a1.889,1.889,0,0,0-1.484.6,2.78,2.78,0,0,0-.615,1.7h4.18a2.483,2.483,0,0,0-.576-1.7A1.951,1.951,0,0,0,166.735,34Zm.42,9.2a5.635,5.635,0,0,1-4.121-1.455,5.509,5.509,0,0,1-1.484-4.121,6.06,6.06,0,0,1,1.372-4.243,4.886,4.886,0,0,1,3.794-1.5,4.809,4.809,0,0,1,3.6,1.318,4.988,4.988,0,0,1,1.289,3.643v1.445h-7.041a2.867,2.867,0,0,0,.752,1.982,2.646,2.646,0,0,0,1.973.713,8.189,8.189,0,0,0,1.865-.205,9.333,9.333,0,0,0,1.836-.654v2.3a6.994,6.994,0,0,1-1.67.581A10.529,10.529,0,0,1,167.155,43.2Zm9.072-.2-4.16-10.918h3.115l2.109,6.221a11.1,11.1,0,0,1,.439,2.236h.059a9.724,9.724,0,0,1,.439-2.236l2.1-6.221h3.115L179.284,43Zm15.713,0-.576-1.484h-.078a4.4,4.4,0,0,1-1.548,1.313,5,5,0,0,1-2.075.366,3.356,3.356,0,0,1-2.476-.9,3.45,3.45,0,0,1-.9-2.559,2.881,2.881,0,0,1,1.216-2.563,7.045,7.045,0,0,1,3.667-.913l1.895-.059v-.479a1.485,1.485,0,0,0-1.7-1.66,7.743,7.743,0,0,0-3.076.791l-.986-2.012a8.876,8.876,0,0,1,4.18-.986,5.206,5.206,0,0,1,3.369.957,3.537,3.537,0,0,1,1.172,2.91V43Zm-.879-5.059-1.152.039a3.69,3.69,0,0,0-1.934.469,1.472,1.472,0,0,0-.635,1.309q0,1.26,1.445,1.26a2.289,2.289,0,0,0,1.655-.6,2.092,2.092,0,0,0,.62-1.582Zm9,5.059h-2.979V27.8h2.979Zm10.859,0-.4-1.4h-.156a3.142,3.142,0,0,1-1.357,1.177,4.634,4.634,0,0,1-2,.415,3.812,3.812,0,0,1-2.9-1.03,4.145,4.145,0,0,1-.977-2.964V32.082h2.979v6.377a3.063,3.063,0,0,0,.42,1.772,1.528,1.528,0,0,0,1.338.591,2.011,2.011,0,0,0,1.807-.835,5.178,5.178,0,0,0,.557-2.769V32.082h2.979V43Zm12.344,0-.576-1.484h-.078a4.4,4.4,0,0,1-1.548,1.313,5,5,0,0,1-2.075.366,3.356,3.356,0,0,1-2.476-.9,3.45,3.45,0,0,1-.9-2.559,2.881,2.881,0,0,1,1.216-2.563,7.045,7.045,0,0,1,3.667-.913l1.895-.059v-.479a1.485,1.485,0,0,0-1.7-1.66,7.743,7.743,0,0,0-3.076.791l-.986-2.012a8.876,8.876,0,0,1,4.18-.986,5.206,5.206,0,0,1,3.369.957,3.537,3.537,0,0,1,1.172,2.91V43Zm-.879-5.059-1.152.039a3.69,3.69,0,0,0-1.934.469,1.472,1.472,0,0,0-.635,1.309q0,1.26,1.445,1.26a2.289,2.289,0,0,0,1.655-.6,2.092,2.092,0,0,0,.62-1.582ZM232.848,43.2q-5.1,0-5.1-5.6a5.969,5.969,0,0,1,1.387-4.253,5.2,5.2,0,0,1,3.975-1.47,7.577,7.577,0,0,1,3.4.742l-.879,2.3q-.7-.283-1.309-.464a4.216,4.216,0,0,0-1.211-.181q-2.324,0-2.324,3.3,0,3.2,2.324,3.2a5.3,5.3,0,0,0,1.592-.229,5.747,5.747,0,0,0,1.465-.718v2.549a4.8,4.8,0,0,1-1.46.635A8.21,8.21,0,0,1,232.848,43.2Zm5.723-13.936q0-1.455,1.621-1.455t1.621,1.455a1.419,1.419,0,0,1-.405,1.079,1.7,1.7,0,0,1-1.216.386Q238.571,30.725,238.571,29.26ZM241.677,43H238.7V32.082h2.979Zm5.5-5.479a4.582,4.582,0,0,0,.532,2.451,1.9,1.9,0,0,0,1.733.83,1.873,1.873,0,0,0,1.714-.825,4.648,4.648,0,0,0,.522-2.456,4.51,4.51,0,0,0-.527-2.432,2.242,2.242,0,0,0-3.447,0A4.506,4.506,0,0,0,247.175,37.521Zm7.549,0a5.867,5.867,0,0,1-1.406,4.17,5.1,5.1,0,0,1-3.916,1.5,5.478,5.478,0,0,1-2.773-.688,4.581,4.581,0,0,1-1.846-1.978,6.645,6.645,0,0,1-.645-3.008,5.835,5.835,0,0,1,1.4-4.16,5.128,5.128,0,0,1,3.926-1.484,5.509,5.509,0,0,1,2.773.684,4.563,4.563,0,0,1,1.846,1.963A6.584,6.584,0,0,1,254.723,37.521ZM247.8,30.881v-.264a27.494,27.494,0,0,0,2.295-2.939h3.34v.205q-.508.508-1.733,1.509t-1.919,1.489ZM267.262,43h-2.979V36.623a3.063,3.063,0,0,0-.42-1.772,1.528,1.528,0,0,0-1.338-.591,2.011,2.011,0,0,0-1.807.835,5.178,5.178,0,0,0-.557,2.769V43h-2.979V32.082h2.275l.4,1.4h.166a3.148,3.148,0,0,1,1.372-1.2,4.672,4.672,0,0,1,1.987-.405,3.818,3.818,0,0,1,2.891,1.03,4.134,4.134,0,0,1,.986,2.974Z" transform="translate(-564.897 4181.438)" fill="#3a3937"/>
    <path id="Trazado_5130" data-name="Trazado 5130" d="M12,0H428.5a12,12,0,0,1,12,12V50.609a12,12,0,0,1-12,12H12a12,12,0,0,1-12-12V12A12,12,0,0,1,12,0Z" transform="translate(-578.725 4035.957)" fill="#db9600"/>
    <path id="Trazado_5131" data-name="Trazado 5131" d="M82.653,13.061h.977a3.736,3.736,0,0,0,2.119-.479,1.708,1.708,0,0,0,.684-1.5,1.562,1.562,0,0,0-.7-1.445,4.237,4.237,0,0,0-2.163-.43h-.918Zm0,2.461V21H79.626V6.723h4.16a7.12,7.12,0,0,1,4.307,1.06A3.782,3.782,0,0,1,89.489,11a3.788,3.788,0,0,1-.693,2.241,4.588,4.588,0,0,1-1.963,1.538q3.223,4.814,4.2,6.221H87.673l-3.408-5.479ZM97.116,12a1.889,1.889,0,0,0-1.484.6,2.78,2.78,0,0,0-.615,1.7H99.2a2.483,2.483,0,0,0-.576-1.7A1.951,1.951,0,0,0,97.116,12Zm.42,9.2a5.635,5.635,0,0,1-4.121-1.455,5.509,5.509,0,0,1-1.484-4.121A6.06,6.06,0,0,1,93.3,11.376a4.886,4.886,0,0,1,3.794-1.5,4.809,4.809,0,0,1,3.6,1.318,4.988,4.988,0,0,1,1.289,3.643v1.445H94.948a2.867,2.867,0,0,0,.752,1.982,2.646,2.646,0,0,0,1.973.713,8.189,8.189,0,0,0,1.865-.205,9.333,9.333,0,0,0,1.836-.654v2.3A6.994,6.994,0,0,1,99.7,21,10.529,10.529,0,0,1,97.536,21.2Zm13.809-.2-.576-1.484h-.078a4.4,4.4,0,0,1-1.548,1.313,5,5,0,0,1-2.075.366,3.356,3.356,0,0,1-2.476-.9,3.45,3.45,0,0,1-.9-2.559,2.881,2.881,0,0,1,1.216-2.563,7.045,7.045,0,0,1,3.667-.913l1.895-.059v-.479a1.485,1.485,0,0,0-1.7-1.66,7.743,7.743,0,0,0-3.076.791l-.986-2.012a8.876,8.876,0,0,1,4.18-.986,5.206,5.206,0,0,1,3.369.957,3.537,3.537,0,0,1,1.172,2.91V21Zm-.879-5.059-1.152.039a3.69,3.69,0,0,0-1.934.469,1.472,1.472,0,0,0-.635,1.309q0,1.26,1.445,1.26a2.289,2.289,0,0,0,1.655-.6,2.092,2.092,0,0,0,.62-1.582Zm9,5.059h-2.979V5.8h2.979Zm3-13.74q0-1.455,1.621-1.455T125.71,7.26a1.419,1.419,0,0,1-.405,1.079,1.7,1.7,0,0,1-1.216.386Q122.468,8.725,122.468,7.26ZM125.573,21h-2.979V10.082h2.979ZM136.3,21h-8.623V19.242l5.059-6.885h-4.756V10.082h8.145v1.934L131.2,18.725h5.1Zm9.092,0-.576-1.484h-.078a4.4,4.4,0,0,1-1.548,1.313,5,5,0,0,1-2.075.366,3.356,3.356,0,0,1-2.476-.9,3.45,3.45,0,0,1-.9-2.559,2.881,2.881,0,0,1,1.216-2.563,7.045,7.045,0,0,1,3.667-.913l1.895-.059v-.479a1.485,1.485,0,0,0-1.7-1.66,7.743,7.743,0,0,0-3.076.791l-.986-2.012a8.876,8.876,0,0,1,4.18-.986,5.206,5.206,0,0,1,3.369.957,3.537,3.537,0,0,1,1.172,2.91V21Zm-.879-5.059-1.152.039a3.69,3.69,0,0,0-1.934.469,1.472,1.472,0,0,0-.635,1.309q0,1.26,1.445,1.26a2.289,2.289,0,0,0,1.655-.6,2.092,2.092,0,0,0,.62-1.582Zm12.119-6.064a4.8,4.8,0,0,1,1.006.088l-.225,2.793a3.412,3.412,0,0,0-.879-.1,3.159,3.159,0,0,0-2.222.732,2.648,2.648,0,0,0-.8,2.051V21h-2.979V10.082h2.256l.439,1.836h.146a4.1,4.1,0,0,1,1.372-1.479A3.383,3.383,0,0,1,156.628,9.877ZM172.546,21l-.4-1.4h-.156a3.143,3.143,0,0,1-1.357,1.177,4.634,4.634,0,0,1-2,.415,3.812,3.812,0,0,1-2.9-1.03,4.145,4.145,0,0,1-.977-2.964V10.082h2.979v6.377a3.063,3.063,0,0,0,.42,1.772,1.528,1.528,0,0,0,1.338.591,2.011,2.011,0,0,0,1.807-.835,5.178,5.178,0,0,0,.557-2.769V10.082h2.979V21Zm15.488,0h-2.979V14.623a3.063,3.063,0,0,0-.42-1.772,1.528,1.528,0,0,0-1.338-.591,2.011,2.011,0,0,0-1.807.835,5.178,5.178,0,0,0-.557,2.769V21h-2.979V10.082h2.275l.4,1.4h.166a3.148,3.148,0,0,1,1.372-1.2,4.672,4.672,0,0,1,1.987-.405,3.818,3.818,0,0,1,2.891,1.03,4.134,4.134,0,0,1,.986,2.974Zm10,0-.576-1.484h-.078a4.4,4.4,0,0,1-1.548,1.313,5,5,0,0,1-2.075.366,3.356,3.356,0,0,1-2.476-.9,3.45,3.45,0,0,1-.9-2.559,2.881,2.881,0,0,1,1.216-2.563,7.045,7.045,0,0,1,3.667-.913l1.895-.059v-.479a1.485,1.485,0,0,0-1.7-1.66,7.743,7.743,0,0,0-3.076.791l-.986-2.012a8.876,8.876,0,0,1,4.18-.986,5.206,5.206,0,0,1,3.369.957,3.537,3.537,0,0,1,1.172,2.91V21Zm-.879-5.059L196,15.98a3.69,3.69,0,0,0-1.934.469,1.472,1.472,0,0,0-.635,1.309q0,1.26,1.445,1.26a2.289,2.289,0,0,0,1.655-.6,2.092,2.092,0,0,0,.62-1.582ZM214.372,21.2a3.621,3.621,0,0,1-3.018-1.4H211.2q.156,1.367.156,1.582V25.8h-2.979V10.082H210.8l.42,1.416h.137a3.446,3.446,0,0,1,3.1-1.621,3.543,3.543,0,0,1,3.027,1.494,6.91,6.91,0,0,1,1.094,4.15,8.2,8.2,0,0,1-.513,3.037,4.26,4.26,0,0,1-1.46,1.963A3.741,3.741,0,0,1,214.372,21.2Zm-.879-8.936a1.881,1.881,0,0,0-1.611.679,3.9,3.9,0,0,0-.527,2.241V15.5a4.6,4.6,0,0,0,.522,2.52,1.865,1.865,0,0,0,1.655.762q2,0,2-3.3a4.713,4.713,0,0,0-.493-2.417A1.683,1.683,0,0,0,213.493,12.26ZM224.011,21h-2.979V5.8h2.979Zm10.059,0-.576-1.484h-.078a4.4,4.4,0,0,1-1.548,1.313,5,5,0,0,1-2.075.366,3.356,3.356,0,0,1-2.476-.9,3.45,3.45,0,0,1-.9-2.559,2.881,2.881,0,0,1,1.216-2.563,7.045,7.045,0,0,1,3.667-.913l1.895-.059v-.479a1.485,1.485,0,0,0-1.7-1.66,7.743,7.743,0,0,0-3.076.791l-.986-2.012a8.876,8.876,0,0,1,4.18-.986,5.206,5.206,0,0,1,3.369.957,3.537,3.537,0,0,1,1.172,2.91V21Zm-.879-5.059-1.152.039a3.69,3.69,0,0,0-1.934.469,1.472,1.472,0,0,0-.635,1.309q0,1.26,1.445,1.26a2.289,2.289,0,0,0,1.655-.6,2.092,2.092,0,0,0,.62-1.582ZM249.294,21h-2.979V14.623a3.063,3.063,0,0,0-.42-1.772,1.528,1.528,0,0,0-1.338-.591,2.011,2.011,0,0,0-1.807.835,5.178,5.178,0,0,0-.557,2.769V21h-2.979V10.082h2.275l.4,1.4h.166a3.148,3.148,0,0,1,1.372-1.2,4.672,4.672,0,0,1,1.987-.405,3.818,3.818,0,0,1,2.891,1.03,4.134,4.134,0,0,1,.986,2.974Zm2.939-13.74q0-1.455,1.621-1.455t1.621,1.455a1.419,1.419,0,0,1-.405,1.079,1.7,1.7,0,0,1-1.216.386Q252.233,8.725,252.233,7.26ZM255.339,21H252.36V10.082h2.979Zm9.16-8.682h-2.578V21h-2.979V12.318H257.3V10.883l1.641-.8v-.8a3.577,3.577,0,0,1,.918-2.725A4.207,4.207,0,0,1,262.8,5.7a7.65,7.65,0,0,1,2.744.459l-.762,2.188a5.552,5.552,0,0,0-1.66-.283,1.075,1.075,0,0,0-.918.376,1.555,1.555,0,0,0-.283.962v.684H264.5Zm1.582-5.059q0-1.455,1.621-1.455t1.621,1.455a1.419,1.419,0,0,1-.405,1.079,1.7,1.7,0,0,1-1.216.386Q266.081,8.725,266.081,7.26ZM269.186,21h-2.979V10.082h2.979Zm7.549.2q-5.1,0-5.1-5.6a5.969,5.969,0,0,1,1.387-4.253A5.2,5.2,0,0,1,277,9.877a7.577,7.577,0,0,1,3.4.742l-.879,2.3q-.7-.283-1.309-.464A4.216,4.216,0,0,0,277,12.279q-2.324,0-2.324,3.3,0,3.2,2.324,3.2a5.3,5.3,0,0,0,1.592-.229,5.747,5.747,0,0,0,1.465-.718v2.549a4.8,4.8,0,0,1-1.46.635A8.21,8.21,0,0,1,276.735,21.2Zm12.783-.2-.576-1.484h-.078a4.4,4.4,0,0,1-1.548,1.313,5,5,0,0,1-2.075.366,3.356,3.356,0,0,1-2.476-.9,3.45,3.45,0,0,1-.9-2.559,2.881,2.881,0,0,1,1.216-2.563,7.045,7.045,0,0,1,3.667-.913l1.895-.059v-.479a1.485,1.485,0,0,0-1.7-1.66,7.743,7.743,0,0,0-3.076.791l-.986-2.012a8.876,8.876,0,0,1,4.18-.986,5.206,5.206,0,0,1,3.369.957,3.537,3.537,0,0,1,1.172,2.91V21Zm-.879-5.059-1.152.039a3.69,3.69,0,0,0-1.934.469,1.472,1.472,0,0,0-.635,1.309q0,1.26,1.445,1.26a2.289,2.289,0,0,0,1.655-.6,2.092,2.092,0,0,0,.62-1.582ZM299.1,21.2q-5.1,0-5.1-5.6a5.969,5.969,0,0,1,1.387-4.253,5.2,5.2,0,0,1,3.975-1.47,7.577,7.577,0,0,1,3.4.742l-.879,2.3q-.7-.283-1.309-.464a4.216,4.216,0,0,0-1.211-.181q-2.324,0-2.324,3.3,0,3.2,2.324,3.2a5.3,5.3,0,0,0,1.592-.229,5.747,5.747,0,0,0,1.465-.718v2.549a4.8,4.8,0,0,1-1.46.635A8.21,8.21,0,0,1,299.1,21.2ZM304.821,7.26q0-1.455,1.621-1.455t1.621,1.455a1.419,1.419,0,0,1-.405,1.079,1.7,1.7,0,0,1-1.216.386Q304.821,8.725,304.821,7.26ZM307.927,21h-2.979V10.082h2.979Zm5.5-5.479a4.582,4.582,0,0,0,.532,2.451,1.9,1.9,0,0,0,1.733.83,1.873,1.873,0,0,0,1.714-.825,4.648,4.648,0,0,0,.522-2.456,4.51,4.51,0,0,0-.527-2.432,2.242,2.242,0,0,0-3.447,0A4.506,4.506,0,0,0,313.425,15.521Zm7.549,0a5.867,5.867,0,0,1-1.406,4.17,5.1,5.1,0,0,1-3.916,1.5,5.478,5.478,0,0,1-2.773-.688,4.581,4.581,0,0,1-1.846-1.978,6.645,6.645,0,0,1-.645-3.008,5.835,5.835,0,0,1,1.4-4.16,5.128,5.128,0,0,1,3.926-1.484,5.509,5.509,0,0,1,2.773.684,4.563,4.563,0,0,1,1.846,1.963A6.584,6.584,0,0,1,320.973,15.521ZM314.05,8.881V8.617a27.5,27.5,0,0,0,2.295-2.939h3.34v.205q-.508.508-1.733,1.509t-1.919,1.489ZM333.512,21h-2.979V14.623a3.063,3.063,0,0,0-.42-1.772,1.528,1.528,0,0,0-1.338-.591,2.011,2.011,0,0,0-1.807.835,5.178,5.178,0,0,0-.557,2.769V21h-2.979V10.082h2.275l.4,1.4h.166a3.148,3.148,0,0,1,1.372-1.2,4.672,4.672,0,0,1,1.987-.405,3.818,3.818,0,0,1,2.891,1.03,4.134,4.134,0,0,1,.986,2.974Z" transform="translate(-564.897 4052.67)" fill="#fff"/>
    <path id="Trazado_5121" data-name="Trazado 5121" d="M716.731,4146.991v-31.955h-4v31.955l-9.414-3.405c4.57,5.242,8.885,13.7,11.414,20.514,2.527-6.816,6.842-15.272,11.412-20.514Z" transform="translate(-1073 -6)" fill="#14160e"/>
  </g>
</svg>
